<svg width="36" height="36" viewBox="0 0 36 36" fill="none" xmlns="http://www.w3.org/2000/svg">
<circle cx="18" cy="18" r="18" fill="#F7F9FC"/>
<path d="M24.25 12.582L23.9152 18.0039M11.75 12.582L12.2538 20.936C12.3829 23.0755 12.4474 24.1453 12.9822 24.9146C13.2467 25.2949 13.5873 25.6159 13.9825 25.8572C14.542 26.1987 15.2342 26.3013 16.3333 26.332" stroke="#FF4C51" stroke-width="1.5" stroke-linecap="round"/>
<path d="M24.6663 20.5L18.833 26.3329M24.6663 26.3333L18.833 20.5004" stroke="#FF4C51" stroke-width="1.5" stroke-linecap="round" stroke-linejoin="round"/>
<path d="M10.5 12.5827H25.5M21.3798 12.5827L20.8109 11.4091C20.433 10.6296 20.244 10.2398 19.9181 9.99669C19.8458 9.94277 19.7692 9.8948 19.6892 9.85327C19.3283 9.66602 18.8951 9.66602 18.0288 9.66602C17.1407 9.66602 16.6967 9.66602 16.3297 9.86112C16.2484 9.90436 16.1708 9.95426 16.0977 10.0103C15.768 10.2633 15.5839 10.6673 15.2155 11.4754L14.7108 12.5827" stroke="#FF4C51" stroke-width="1.5" stroke-linecap="round"/>
</svg>
