<svg width="24" height="25" viewBox="0 0 24 25" fill="none" xmlns="http://www.w3.org/2000/svg">
<mask id="mask0_1_24813" style="mask-type:luminance" maskUnits="userSpaceOnUse" x="0" y="0" width="24" height="25">
<path d="M0 0.5H24.0001V24.5H0V0.5Z" fill="white"/>
</mask>
<g mask="url(#mask0_1_24813)">
<path fill-rule="evenodd" clip-rule="evenodd" d="M-1.5 0.5H25.5V24.5H-1.5V0.5Z" fill="#199D00"/>
<path fill-rule="evenodd" clip-rule="evenodd" d="M5.30408 7.30233C5.27289 7.863 5.23552 8.84972 5.59282 8.95092C6.02499 9.00633 5.78667 7.97564 5.94311 7.78875C5.97268 7.69641 6.02721 7.69594 6.03171 7.81242V8.68664C6.02777 8.97099 6.16794 9.0547 6.27682 9.11344C6.39016 9.10177 6.46582 9.10683 6.51022 9.25383L6.56338 10.7661C6.56338 10.7661 6.8262 10.8664 6.83872 9.91547C6.85127 9.35719 6.75505 8.88984 6.81147 8.78119C6.81344 8.67445 6.91568 8.66808 6.98655 8.72011C7.09954 8.82633 7.14985 8.95753 7.32542 8.90508C7.59254 8.80692 7.75313 8.63367 7.75707 8.3602C7.74146 8.10028 7.71959 7.84036 7.63515 7.58044C7.64693 7.53314 7.58357 7.4107 7.59532 7.36341C7.64334 7.46367 7.71639 7.45533 7.73299 7.36341C7.68753 7.16367 7.61697 6.97228 7.50261 6.88941C7.40811 6.77841 7.26977 6.80109 7.21911 7.03266C7.19566 7.29947 7.29125 7.61649 7.43697 7.87491C7.46791 7.97588 7.5114 8.14364 7.49227 8.29472C7.41475 8.35374 7.3372 8.32913 7.27223 8.23767C7.27223 8.23767 7.05961 8.02505 7.05961 7.9778C7.11603 7.49611 7.07212 7.4415 7.04087 7.30781C7.019 7.12327 6.95333 7.06411 6.90014 6.93806C6.84695 6.86288 6.77498 6.86288 6.7406 6.93806C6.64659 7.15533 6.69043 7.62164 6.75832 7.83056C6.80739 8.02266 6.88235 8.14322 6.84691 8.14322C6.81777 8.25178 6.75747 8.2267 6.7136 8.10141C6.65095 7.84242 6.6384 7.45599 6.6384 7.28203C6.61963 7.06627 6.59895 6.60609 6.49247 6.48919C6.4275 6.37125 6.3312 6.42877 6.29756 6.53644C6.29056 6.75056 6.28982 6.96464 6.30793 7.16199C6.38095 7.50806 6.40391 7.81242 6.43934 8.16684C6.44919 8.64159 6.23347 8.37281 6.24331 8.13745C6.29306 7.83174 6.28016 7.35052 6.23593 7.22855C6.20091 7.10658 6.15954 7.07649 6.07432 7.09655C6.00664 7.09106 5.83251 7.34456 5.78361 7.76508C5.78361 7.76508 5.74191 7.98155 5.72416 8.17374C5.70025 8.39091 5.59303 8.54419 5.51779 8.14317C5.45282 7.85175 5.41289 7.13424 5.30404 7.30228L5.30408 7.30233Z" fill="white"/>
<path fill-rule="evenodd" clip-rule="evenodd" d="M6.47838 9.60334C6.097 9.85192 5.72818 10.0838 5.35303 10.324C5.36674 9.98392 5.88807 9.36995 6.24357 9.36133C6.47497 9.36995 6.41682 9.48081 6.47838 9.60334Z" fill="white"/>
<path fill-rule="evenodd" clip-rule="evenodd" d="M6.28202 10.0735C5.68893 12.1119 7.67087 12.3959 7.89235 10.1569C7.9132 10.0651 7.99677 9.97319 8.01139 10.1235C7.96544 12.1508 6.47837 12.2901 6.22566 11.6523C6.16305 11.502 6.14421 11.1678 6.13795 10.9673C6.10033 10.5691 5.94375 10.7222 5.91868 11.1176C5.89358 11.3376 5.89987 11.399 5.89987 11.6106C5.97922 13.2118 7.8945 12.524 8.20566 11.2012C8.37065 10.4688 8.17849 9.92861 8.26828 9.93137C8.45837 10.2043 8.72355 9.96756 8.78205 9.87287C8.80715 9.82553 8.86984 9.79497 8.91368 9.85619C9.06193 9.99831 9.32307 9.93133 9.37735 9.68073C9.40871 9.43567 9.43378 9.18226 9.44004 8.92056C9.31885 8.97072 9.2291 9.00405 9.22073 9.07094L9.19566 9.28811C9.18526 9.35776 9.08074 9.36048 9.07663 9.27137C9.03068 8.99289 8.84062 8.9567 8.72573 9.38837C8.64842 9.4719 8.50854 9.48864 8.49388 9.36334C8.51265 9.0737 8.42493 9.0347 8.24954 9.17115C8.19311 8.5975 8.13676 8.04897 8.08033 7.47526C8.15346 7.47245 8.22032 7.54483 8.28719 7.43345C8.214 7.12998 8.05948 6.50894 7.97381 6.46436C7.93204 6.39756 7.89647 6.43933 7.84225 6.45601C7.75036 6.49501 7.66472 6.60086 7.69182 6.80692C7.80045 7.68686 7.87147 8.35801 7.9801 9.238C7.99677 9.34103 7.93204 9.47739 7.84851 9.46347C7.70648 9.3354 7.67108 9.07647 7.42875 9.08753C7.25328 9.09034 7.05272 9.34375 7.02772 9.5889C6.99847 9.78372 6.98799 9.99531 7.02765 10.1653C7.15094 10.363 7.29923 10.3435 7.42871 10.299C7.53523 10.2405 7.62291 10.0985 7.66053 10.1319C7.68563 10.1737 7.66675 10.6414 7.15924 11.0007C6.85225 11.1844 6.60785 11.2263 6.47633 10.8921C6.39487 10.6832 6.48259 9.88956 6.28202 10.0734V10.0735Z" fill="white"/>
<path fill-rule="evenodd" clip-rule="evenodd" d="M8.79769 8.00102C8.91673 7.94252 9.48075 7.08209 9.48075 7.08209C9.45146 7.04866 9.42534 7.02359 9.39609 6.99016C9.36473 6.95398 9.36789 6.91779 9.39609 6.88155C9.53601 6.77299 9.49112 6.53487 9.41803 6.4263C9.29688 6.35384 9.19141 6.37755 9.1141 6.43043C9.01594 6.55577 8.99302 6.75621 9.07033 6.88155C9.14557 6.9289 9.22069 7.03057 9.17053 7.08626C8.9398 7.41485 8.30797 7.98157 8.38109 8.00102C8.3967 8.02887 8.78521 8.02746 8.79769 8.00102ZM5.39197 11.0465C5.18047 11.4957 5.16205 12.1669 5.27876 12.3671C5.34078 12.4616 5.44266 12.503 5.51804 12.4734C5.65093 12.3965 5.70908 12.0376 5.67754 11.9062C5.63317 11.8137 5.59826 11.799 5.55397 11.8778C5.46045 12.1309 5.42164 11.9572 5.41345 11.8158C5.3991 11.5475 5.41805 11.3004 5.43989 11.1048C5.46316 10.9042 5.43953 10.9655 5.39197 11.0465ZM14.4301 10.327C14.2256 9.74004 13.9425 9.16005 13.8524 8.93726C13.7623 8.71437 13.0823 7.39849 12.9822 7.25051C12.7613 6.90049 13.3409 7.39629 12.9089 6.70132C12.7441 6.51288 12.7346 6.5014 12.5978 6.34765C12.5289 6.2824 12.3605 6.16319 12.3307 6.36077C12.3156 6.53501 12.3237 6.62946 12.3457 6.77454C12.3625 6.87124 12.4682 7.03319 12.5201 7.12704C13.2101 8.3636 13.8219 9.61235 14.4118 11.1824C14.505 11.1234 14.4846 10.4252 14.4301 10.327H14.4301Z" fill="white"/>
<path fill-rule="evenodd" clip-rule="evenodd" d="M13.5323 12.2901C13.4921 12.3503 13.6316 12.6077 13.8129 12.6074C14.1161 12.5606 14.383 12.3335 14.6301 11.7358C14.6962 11.5964 14.8123 11.2983 14.8157 11.067C14.8388 9.71116 14.7648 8.6561 14.6125 7.67609C14.6027 7.58065 14.6086 7.46843 14.6208 7.43984C14.6404 7.40857 14.707 7.43998 14.7423 7.36277C14.7941 7.29223 14.6047 6.70793 14.4967 6.48288C14.4584 6.38238 14.445 6.31526 14.3815 6.4947C14.3148 6.64048 14.2699 6.89491 14.2752 7.13266C14.4198 8.4678 14.4642 9.63574 14.5587 10.9709C14.5665 11.1 14.5522 11.2876 14.4878 11.3624C14.2497 11.6939 13.9061 12.102 13.5323 12.2901ZM17.6277 12.2831C17.4101 12.4507 17.4099 12.6436 17.5858 12.6506C17.8889 12.6037 18.2472 12.5701 18.4942 12.0727C18.5604 11.9333 18.6389 11.5564 18.6423 11.3251C18.6654 9.96926 18.629 8.95723 18.4767 7.9773C18.4669 7.88182 18.4352 7.66212 18.4473 7.63348C18.467 7.56635 18.5658 7.64079 18.6011 7.56354C18.6529 7.49304 18.3453 6.96602 18.2373 6.74098C18.199 6.64052 18.1856 6.5734 18.1221 6.75279C18.0553 6.89862 18.032 7.16023 18.0588 7.39081C18.2195 8.84056 18.3392 9.9297 18.3639 11.2146C18.35 11.3366 18.3466 11.4024 18.3037 11.556C18.2088 11.7182 18.1037 11.9209 18.0051 12.019C17.9066 12.1169 17.6963 12.2105 17.6277 12.2831V12.2831Z" fill="white"/>
<path fill-rule="evenodd" clip-rule="evenodd" d="M17.7909 10.985C17.7884 10.646 17.7945 10.3532 17.7861 10.1004C17.7778 9.84746 17.7443 9.64154 17.6786 9.46206C17.6165 9.26959 17.6551 9.11495 17.6259 8.90992C17.5967 8.70498 17.6039 8.39804 17.5599 8.15485C17.5478 8.05988 17.5108 7.75571 17.5223 7.72656C17.5402 7.65868 17.6086 7.72867 17.642 7.65001C17.692 7.57726 17.4684 6.80588 17.355 6.58562C17.3142 6.48685 17.2402 6.5207 17.1489 6.68124C17.0641 6.78695 17.0956 7.02793 17.1279 7.25715C17.3455 8.77079 17.5077 10.1408 17.4723 11.5817C17.4614 11.7042 17.7932 11.2163 17.7909 10.985ZM16.1836 9.10768C16.0467 9.10435 15.7602 8.75265 15.6765 8.54659C15.6449 8.42842 15.6652 8.3131 15.693 8.24556C15.7437 8.20163 15.8217 8.15228 15.8799 8.19962C15.8799 8.19962 15.9404 8.31231 15.9287 8.32665C16.0034 8.37437 16.0351 8.3469 16.0427 8.3064C16.0478 8.23543 16.0206 8.19315 16.0203 8.11501C16.0519 7.90313 16.2336 7.87018 16.302 8.00532C16.3521 8.08768 16.3704 8.26276 16.378 8.38093C16.3772 8.44131 16.3039 8.37048 16.2623 8.38501C16.2206 8.39954 16.2105 8.46367 16.2073 8.52165C16.1997 8.67531 16.1861 8.92187 16.1836 9.10763V9.10768ZM13.6583 11.361C13.696 10.9003 13.6444 10.0798 13.6409 9.80799C13.6271 9.16581 13.5484 7.9254 13.511 7.71817C13.4688 7.32756 13.6315 7.76101 13.6089 7.53395C13.5562 7.1439 13.3939 6.87948 13.2032 6.5222C13.1416 6.40595 13.1438 6.38228 13.0488 6.5507C12.9437 6.86851 13.0344 7.08718 13.0616 7.33473C13.1991 8.14126 13.2794 8.88334 13.3168 9.61693C13.3541 10.3505 13.3656 11.1437 13.3315 11.9164C13.4346 11.9218 13.6003 11.6941 13.6583 11.361Z" fill="white"/>
<path fill-rule="evenodd" clip-rule="evenodd" d="M18.2567 10.6214C18.0154 10.0816 17.6513 9.497 17.5541 9.27964C17.4568 9.06223 16.6342 7.64698 16.5293 7.50495C16.2284 7.0834 16.6674 7.43633 16.4717 7.11073C16.3062 6.86848 16.258 6.79245 16.1164 6.64676C16.0453 6.58559 16.0023 6.46873 15.979 6.66786C15.9697 6.8428 15.96 7.0452 15.9688 7.19262C15.9683 7.27461 16.0323 7.42859 16.0873 7.51934C16.8169 8.71465 17.6128 9.93514 18.2535 11.4695C18.3447 11.405 18.3144 10.7164 18.2567 10.6214Z" fill="white"/>
<path fill-rule="evenodd" clip-rule="evenodd" d="M7.30984 9.62696C7.29247 9.66755 7.2538 9.72014 7.26677 9.77457C7.29384 9.8235 7.3155 9.83344 7.36064 9.83611C7.3998 9.83611 7.45451 9.84844 7.46628 9.81764C7.48738 9.78671 7.50337 9.72347 7.48583 9.66385C7.44505 9.52791 7.33114 9.57853 7.30984 9.62696Z" fill="#1BA400"/>
<path fill-rule="evenodd" clip-rule="evenodd" d="M15.4513 17.4945C15.774 17.5104 15.9852 17.5142 16.2722 17.5597C16.2722 17.5597 16.5197 17.5271 16.608 17.5093C16.9816 17.4618 16.9981 18.2207 16.9981 18.2207C16.994 18.6658 16.8652 18.6891 16.7007 18.7361C16.6067 18.752 16.5573 18.661 16.5079 18.5641C16.4459 18.5987 16.3617 18.6037 16.2596 18.5848C16.1251 18.5736 15.9906 18.5743 15.8562 18.5631C15.7134 18.5463 15.6374 18.5829 15.4945 18.5661C15.4651 18.6278 15.4268 18.7131 15.3395 18.6857C15.2668 18.6749 15.1807 18.4029 15.206 18.196C15.2585 18.0477 15.2441 18.0954 15.2386 18.0302C13.9194 17.9854 12.5875 17.907 11.2934 17.9294C10.2809 17.935 9.28089 17.991 8.28094 18.0471C7.74738 18.0358 7.33985 17.9238 7.05835 17.3748C7.08356 17.3748 8.4196 17.4756 8.81036 17.442C9.533 17.4308 10.1926 17.3524 10.9279 17.3244C12.3773 17.358 13.8143 17.358 15.2637 17.4924C15.125 17.366 15.1201 17.0672 15.3335 16.9942C15.3516 16.9776 15.361 17.1427 15.3929 17.1396C15.5636 17.1226 15.4887 17.4309 15.4512 17.4945L15.4513 17.4945ZM9.63193 6.84172C9.41227 7.67886 9.75779 8.59457 9.99734 8.50541C10.1702 8.6008 10.2802 8.16243 10.351 7.68214C10.3994 7.54733 10.436 7.53299 10.4608 7.60227C10.4544 8.24094 10.4952 8.38241 10.6184 8.57628C10.8931 8.85889 11.1203 8.61238 11.1382 8.58857L11.3521 8.30338C11.3997 8.23658 11.463 8.23269 11.5303 8.29152C11.5957 8.37074 11.5865 8.50752 11.7264 8.60239C11.8441 8.66521 12.0959 8.61693 12.1542 8.48164C12.2327 8.3023 12.2515 8.24071 12.2879 8.17269C12.3439 8.07327 12.4394 8.11747 12.4394 8.14888C12.4305 8.20433 12.3744 8.25983 12.4127 8.35967C12.4793 8.42628 12.4947 8.38344 12.5341 8.36863C12.6734 8.2798 12.7781 7.8756 12.7781 7.8756C12.7842 7.72522 12.721 7.73764 12.68 7.76863C12.6266 7.81222 12.6231 7.82614 12.5696 7.86974C12.5015 7.88324 12.3693 7.94347 12.3039 7.80857C12.2372 7.64633 12.2363 7.41997 12.1853 7.25638C12.1853 7.24447 12.0967 6.99866 12.1791 6.98291C12.2207 6.99322 12.3094 7.02453 12.3235 6.92492C12.3672 6.8278 12.2301 6.55283 12.1364 6.41394C12.055 6.29478 11.9422 6.28044 11.8333 6.40208C11.7571 6.4956 11.7681 6.60008 11.7531 6.69913C11.7337 6.81285 11.7379 6.95277 11.8244 7.10319C11.9005 7.30321 12.0394 7.56083 11.9938 7.92308C11.9938 7.92308 11.9127 8.09432 11.7714 8.07191C11.7125 8.0548 11.617 8.02147 11.566 7.51907C11.5273 7.13882 11.5751 6.60674 11.454 6.35732C11.4103 6.20671 11.3784 6.06125 11.2718 6.31888C11.2432 6.42003 11.1203 6.57355 11.2095 6.8893C11.2824 7.08946 11.312 7.41524 11.279 7.77777C11.2284 7.88075 11.2172 7.91563 11.151 8.01866C11.058 8.15202 10.957 8.11799 10.8797 8.06816C10.8074 8.00324 10.7509 7.96967 10.7179 7.76342C10.7239 7.43469 10.7376 6.89652 10.6925 6.78238C10.6261 6.60557 10.5165 6.6695 10.4697 6.72294C10.2448 6.99711 10.1337 7.45972 10.0658 7.82811C10.0034 8.09657 9.93705 8.01964 9.89036 7.91132C9.77681 7.76938 9.76907 6.65928 9.63193 6.84182V6.84172Z" fill="white"/>
<path fill-rule="evenodd" clip-rule="evenodd" d="M10.2931 8.66081C10.3928 8.56659 10.3462 8.50078 10.4954 8.69962C10.6821 9.12534 10.8022 9.67673 10.8202 10.1652C10.8123 10.2856 10.876 10.3618 10.9051 10.3356C10.9224 10.053 11.4378 9.65925 11.9104 9.60168C11.9827 9.58073 11.9475 9.39604 11.9593 9.30187C11.931 8.95204 12.1067 8.63353 12.3531 8.60812C12.6884 8.67422 12.8001 8.9129 12.8057 9.27726C12.7695 9.97673 12.223 10.0953 11.9159 10.1511C11.8688 10.1749 11.8492 10.2038 11.9159 10.2381L13.2025 10.2459L13.2681 10.2964C13.276 10.3373 13.2494 10.3032 13.1986 10.4147C13.1478 10.5262 13.0729 10.7834 13.069 10.9551C12.6857 11.1195 12.2893 11.1915 11.8863 11.2564C11.7463 11.3508 11.6769 11.4766 11.7057 11.6182C11.7528 11.7752 12.0629 11.932 12.0629 11.9395C12.1217 11.9887 12.1914 12.1036 12.0462 12.3391C11.4187 12.3023 10.9323 11.9462 10.764 11.4436C10.7132 11.3911 10.6586 11.4433 10.6236 11.5112C10.3786 11.9324 10.1375 12.3116 9.7198 12.5129C9.47069 12.5959 9.2157 12.4619 9.09525 12.2444C9.01464 12.1207 9.0177 11.984 8.9881 11.9543C8.85345 12.0337 7.69487 12.6901 7.84172 12.3844C8.12367 11.9819 8.61185 11.6864 9.04298 11.2892C9.07409 11.1562 9.13066 10.706 9.30092 10.5594C9.31076 10.5605 9.27395 10.8238 9.27764 10.9348C9.27958 11.0259 9.27262 11.0616 9.28759 11.0382C9.31667 11.0134 9.83979 10.4654 9.88022 10.2973C9.9312 10.2009 9.89551 9.95686 9.89551 9.94945C9.79743 9.61233 9.65979 9.58368 9.60878 9.4162C9.56287 9.19368 9.58364 8.93972 9.67902 8.86893C9.76375 8.76642 9.86405 8.77908 9.95658 8.89111C10.0623 9.01729 10.1561 9.2639 10.1832 9.44761C10.1651 9.52026 10.045 9.39933 10.0033 9.43542C10.0771 9.53723 10.1115 9.6547 10.1381 9.79842C10.2063 10.1832 10.1855 10.3328 10.1169 10.5816C9.88465 11.2327 9.58783 11.427 9.32813 11.6682C9.3212 11.6715 9.3166 11.8335 9.41426 11.921C9.44794 11.9682 9.5834 11.9924 9.74269 11.9243C10.0505 11.7005 10.37 11.2882 10.5286 10.829C10.5747 10.4816 10.5108 10.1132 10.443 9.7919C10.341 9.47793 10.2208 9.02962 10.2208 9.02222C10.2168 8.82642 10.2288 8.7585 10.2932 8.66081H10.2931ZM6.92478 6.85003C7.07285 6.9442 7.35126 6.90412 7.33948 6.58575C7.33948 6.55762 7.3341 6.46237 7.33199 6.43654C7.30176 6.3427 7.21932 6.3659 7.20061 6.46279C7.19474 6.49453 7.21109 6.54623 7.18954 6.56217C7.17716 6.57881 7.12984 6.56901 7.13181 6.48108C7.13181 6.45304 7.11634 6.42295 7.10699 6.40514C7.09764 6.39698 7.0917 6.39473 7.07475 6.39473C7.05408 6.39581 7.05443 6.40298 7.04311 6.42614C7.0383 6.44967 7.03169 6.47268 7.03169 6.4994C7.02908 6.53072 7.02023 6.54187 7.00296 6.54651C6.98366 6.54651 6.98802 6.54933 6.97238 6.53606C6.9631 6.52247 6.9515 6.51731 6.9515 6.4942C6.9515 6.47025 6.94742 6.43148 6.942 6.41568C6.93381 6.40125 6.92063 6.39459 6.90579 6.38948C6.82493 6.38986 6.81931 6.51286 6.82398 6.55954C6.8179 6.56836 6.81449 6.789 6.92478 6.85003Z" fill="white"/>
<path fill-rule="evenodd" clip-rule="evenodd" d="M11.2656 9.29936C11.4137 9.39353 11.7662 9.33934 11.6803 9.03507C11.6803 9.00695 11.6749 8.91165 11.6728 8.88587C11.6426 8.79203 11.5601 8.81523 11.5414 8.91212C11.5356 8.94385 11.5519 8.99556 11.5304 9.0115C11.518 9.02814 11.4707 9.01834 11.4726 8.9304C11.4726 8.90237 11.4572 8.87228 11.4478 8.85446C11.4385 8.84631 11.4325 8.84406 11.4156 8.84406C11.3949 8.84514 11.3953 8.85231 11.3839 8.87546C11.3791 8.899 11.3725 8.92201 11.3725 8.94873C11.3699 8.98004 11.361 8.9912 11.3438 8.99584C11.3245 8.99584 11.3288 8.99865 11.3132 8.98539C11.3039 8.97179 11.2923 8.96664 11.2923 8.94353C11.2923 8.91957 11.2882 8.88081 11.2828 8.86501C11.2746 8.85057 11.2614 8.84392 11.2466 8.83881C11.1658 8.83918 11.1601 8.96218 11.1648 9.00887C11.1587 9.01768 11.1553 9.23832 11.2656 9.29936ZM13.7968 8.28545C13.9449 8.37962 14.2233 8.33954 14.2116 8.02117C14.2116 7.99304 14.2062 7.89779 14.2041 7.87196C14.1738 7.77812 14.0914 7.80132 14.0727 7.89821C14.0668 7.92995 14.0832 7.98165 14.0616 7.99759C14.0492 8.01423 14.0019 8.00443 14.0039 7.9165C14.0039 7.88846 13.9884 7.85837 13.9791 7.84056C13.9697 7.8324 13.9638 7.83015 13.9468 7.83015C13.9262 7.83123 13.9265 7.8384 13.9152 7.86156C13.9104 7.88509 13.9037 7.9081 13.9037 7.93482C13.9012 7.96614 13.8923 7.97729 13.875 7.98193C13.8557 7.98193 13.8601 7.98475 13.8444 7.97148C13.8352 7.95789 13.8235 7.95273 13.8235 7.92962C13.8235 7.90567 13.8195 7.8669 13.8141 7.85111C13.8059 7.83667 13.7927 7.83001 13.7779 7.8249C13.697 7.82528 13.6914 7.94828 13.6961 7.99496C13.69 8.00378 13.6866 8.22442 13.7968 8.28545ZM15.1078 10.8322C14.8498 11.22 14.9635 11.8613 15.0218 11.9995C15.1069 12.2265 15.1754 12.372 15.341 12.4843C15.4918 12.6323 15.6093 12.5398 15.6741 12.4361C15.8258 12.2265 15.8276 11.6911 15.8988 11.585C15.9488 11.3902 16.0746 11.4234 16.1357 11.5098C16.1949 11.6232 16.2646 11.6964 16.3515 11.7581C16.4931 11.9246 16.6621 11.955 16.8286 11.8033C16.9424 11.7182 17.0164 11.6082 17.083 11.3899C17.157 11.126 17.1157 9.90643 17.1009 9.18362C17.0952 9.1269 16.9538 8.18964 16.9538 8.17918C16.9538 8.16868 16.9351 7.70082 16.9196 7.58936C16.9169 7.54412 16.9085 7.53114 16.944 7.53686C16.9817 7.57918 16.9869 7.58185 17.0104 7.59578C17.0485 7.60506 17.0825 7.51867 17.0596 7.43921L16.7063 6.57048C16.678 6.53326 16.6414 6.49239 16.5964 6.58098C16.5534 6.63118 16.5077 6.72207 16.5091 6.83893C16.5196 7.04481 16.5467 7.25425 16.5571 7.46017L16.6985 8.51729C16.743 9.27086 16.7541 9.88759 16.7986 10.6412C16.7924 10.9602 16.718 11.2384 16.6482 11.2786C16.6482 11.2786 16.542 11.3606 16.4708 11.27C16.419 11.2423 16.2118 10.8094 16.2118 10.8094C16.1058 10.6799 16.036 10.7169 15.9606 10.8094C15.7527 11.0771 15.6586 11.5779 15.5173 11.9233C15.4809 12.0004 15.3779 12.0664 15.2638 11.9177C14.9741 11.39 15.1439 10.6391 15.1078 10.8322ZM13.8633 6.43717C13.9959 6.51123 14.0895 6.8695 14.059 7.04443C14.0326 7.26086 13.9623 7.49457 13.9117 7.46415C13.8567 7.43696 13.9491 7.249 13.8963 7.05184C13.8669 6.9235 13.6859 6.68898 13.705 6.61984C13.6676 6.475 13.7819 6.41162 13.8633 6.43717Z" fill="white"/>
<path fill-rule="evenodd" clip-rule="evenodd" d="M15.5348 11.0456C15.5628 10.6153 15.5156 10.353 15.5073 10.1001C15.4989 9.84718 15.2928 7.91762 15.251 7.72628C15.2005 7.36449 15.4513 7.67776 15.4239 7.46734C15.3372 7.20203 15.1212 6.81578 15.0534 6.58534C15.0126 6.48662 15.0297 6.39878 14.9384 6.55937C14.8537 6.92856 14.8243 7.23034 14.8566 7.4596C15.0742 8.9732 15.2973 10.2318 15.2619 11.6727C15.365 11.6736 15.4839 11.3579 15.5348 11.0456ZM17.8014 7.04809C17.9223 7.12824 17.9931 7.57726 17.9798 7.70556C17.9557 7.93989 17.8915 8.19292 17.8455 8.15996C17.7954 8.13053 17.8555 7.81248 17.8314 7.71357C17.8047 7.57464 17.6397 7.32076 17.657 7.2459C17.6229 7.0891 17.7272 7.02048 17.8014 7.04809ZM8.81297 10.2318C8.92863 10.2907 8.99648 10.6207 8.98368 10.715C8.96062 10.8871 8.8992 11.0731 8.85515 11.0489C8.8072 11.0272 8.86479 10.7935 8.84176 10.7208C8.83198 10.5446 8.67143 10.4533 8.67477 10.3772C8.64481 10.2372 8.74195 10.2114 8.81297 10.2318Z" fill="white"/>
<path fill-rule="evenodd" clip-rule="evenodd" d="M11.6085 10.7273C11.7578 10.74 11.8324 10.8962 11.6925 10.9617C11.5546 11.0247 11.422 11.0739 11.4214 11.3397C11.4724 11.7101 11.3514 11.583 11.2792 11.5327C11.1942 11.4513 10.9555 11.2552 10.9214 10.8319C10.9164 10.7309 10.9754 10.6459 11.0705 10.6465C11.2138 10.6984 11.4251 10.7022 11.6084 10.7273H11.6085Z" fill="#1B9D00"/>
<path fill-rule="evenodd" clip-rule="evenodd" d="M5.72103 6.33152C5.89172 6.40014 5.90181 6.73464 5.88922 6.83242C5.86648 7.01092 5.80601 7.20367 5.76259 7.17855C5.71534 7.15614 5.76073 6.91385 5.73805 6.83847C5.71274 6.73263 5.56853 6.53922 5.58487 6.48222C5.55278 6.36274 5.65107 6.31042 5.72103 6.33152ZM9.09185 7.90839C8.96089 8.00285 8.91009 8.28433 8.99166 8.4483C9.0678 8.59267 9.18807 8.53914 9.20411 8.53914C9.33243 8.56056 9.40854 8.21842 9.40854 8.21842C9.40854 8.21842 9.41258 8.12224 9.26021 8.30402C9.19609 8.32005 9.18807 8.28794 9.17204 8.2398C9.15868 8.15074 9.16136 8.06167 9.19208 7.97256C9.21479 7.88706 9.16533 7.84961 9.09185 7.90839ZM10.0741 6.20214C10.0083 6.26097 9.87731 6.44191 9.8733 6.65041C9.86933 6.76802 9.85291 6.76764 9.91064 6.8425C9.95237 6.92275 9.99445 6.91553 10.0787 6.8567C10.1271 6.80917 10.1434 6.77763 10.1597 6.69794C10.1798 6.56435 10.0538 6.76131 10.0377 6.61263C10.0097 6.47453 10.0906 6.418 10.1668 6.28441C10.1693 6.19286 10.1678 6.12803 10.0741 6.20214ZM10.8655 6.38964C10.8371 6.47317 10.8031 6.90963 10.8088 6.90963C10.7861 7.03966 10.9108 7.0953 10.9675 6.92814C11.0526 6.62172 11.0526 6.49174 11.0582 6.3617C11.0318 6.1637 10.9316 6.16989 10.8655 6.38964ZM15.8549 9.77495C15.8719 9.75227 16.5579 9.10216 16.5579 9.10216C16.6278 9.06939 16.6127 9.43731 16.5806 9.43478C16.5938 9.50781 15.904 10.1328 15.8548 10.1076C15.8208 10.1403 15.7868 9.85563 15.8548 9.77495H15.8549ZM16.4803 9.76933C16.6012 9.84949 16.6494 10.3212 16.636 10.4495C16.6403 10.699 16.5195 10.899 16.4734 10.8661C16.4232 10.8367 16.4778 10.5564 16.4537 10.4575C16.427 10.3186 16.3243 10.0571 16.3416 9.98224C16.3075 9.82544 16.4061 9.74172 16.4803 9.76933ZM12.3997 11.8009C12.4474 11.7079 12.5948 11.5741 12.5982 11.5741C12.6662 11.5287 12.7326 11.6096 12.7286 11.6043C12.7399 11.695 12.6855 11.7795 12.7026 11.9005C12.7174 11.9492 12.7283 12.0033 12.7953 11.9827C12.9043 11.8684 13.0052 11.8611 13.1141 11.8538C13.1976 11.8605 13.2009 12.049 13.1481 12.0504C12.947 12.1086 12.8568 12.1804 12.7132 12.2535C12.6452 12.3064 12.5868 12.2393 12.5868 12.2318C12.5868 12.2242 12.547 12.1803 12.5748 12.0601C12.5797 11.9637 12.5506 11.9109 12.4904 11.9218C12.4451 11.9545 12.4051 11.9762 12.3824 11.9067C12.3735 11.8554 12.3706 11.8304 12.3997 11.8009ZM17.202 12.055C17.2314 12.1048 17.2505 12.151 17.1997 12.2329C17.1516 12.2917 17.1177 12.3241 17.0696 12.3829C17.0469 12.4345 17.0323 12.5129 17.1018 12.5379C17.2301 12.586 17.5268 12.3294 17.5268 12.3241C17.5749 12.276 17.5589 12.1851 17.5548 12.1851C17.5268 12.1423 17.4636 12.1677 17.4211 12.1608C17.4008 12.1608 17.3344 12.1474 17.366 12.069C17.3924 12.0203 17.4018 11.9904 17.4197 11.9303C17.4398 11.8715 17.4225 11.8323 17.3504 11.8002C17.2769 11.7824 17.2475 11.7913 17.166 11.8002C17.1219 11.8127 17.1068 11.839 17.0988 11.9103C17.102 12.0183 17.1513 12.0122 17.202 12.055Z" fill="white"/>
<path fill-rule="evenodd" clip-rule="evenodd" d="M12.4261 9.39395C12.4073 9.43731 12.3437 9.4352 12.2841 9.38927C12.2244 9.34333 12.1913 9.27081 12.2101 9.22741C12.2289 9.184 12.2925 9.18616 12.3522 9.23219C12.4118 9.27822 12.4449 9.35059 12.4261 9.39395ZM9.29465 6.88173C9.259 6.89336 9.21242 6.85098 9.19058 6.78709C9.16875 6.7232 9.18 6.66198 9.21562 6.65036C9.25123 6.63873 9.29785 6.68106 9.31968 6.74495C9.34151 6.80884 9.3303 6.87011 9.29465 6.88173Z" fill="#259F00"/>
<path fill-rule="evenodd" clip-rule="evenodd" d="M15.4888 18.0762C15.8176 18.0975 16.1264 18.0811 16.4552 18.1026C16.5147 18.1701 16.4722 18.3358 16.4325 18.3239C16.3256 18.3203 16.264 18.3168 16.1571 18.3132C16.1535 18.1736 15.8862 18.1965 15.8939 18.3176C15.7496 18.3408 15.6195 18.3109 15.4751 18.3038C15.4325 18.233 15.4379 18.1054 15.4889 18.0762H15.4888Z" fill="#209000"/>
</g>
</svg>
