<svg width="28" height="34" viewBox="0 0 28 34" fill="none" xmlns="http://www.w3.org/2000/svg">
<path d="M4.99691 23.6409C5.67858 24.1116 5.84957 25.0458 5.37881 25.7275C4.50519 26.9926 3.96257 27.8576 3.68572 28.5121C3.42724 29.1233 3.50857 29.2954 3.52907 29.3388L3.53029 29.3413C3.55676 29.3981 3.5881 29.4537 3.6243 29.5075C3.67795 29.5871 3.8793 29.8311 4.99944 29.9779C6.09996 30.122 7.65178 30.1251 9.92375 30.1251H18.0771C20.349 30.1251 21.9009 30.122 23.0014 29.9779C24.1215 29.8311 24.3229 29.5871 24.3765 29.5075L24.4705 29.3413L24.4717 29.3388C24.4922 29.2954 24.5736 29.1233 24.3151 28.5121C24.0382 27.8576 23.4956 26.9926 22.622 25.7275C22.1512 25.0458 22.3222 24.1116 23.0039 23.6409C23.6856 23.1701 24.6198 23.3411 25.0906 24.0228C25.9487 25.2654 26.665 26.3668 27.0781 27.3435C27.5041 28.3508 27.7155 29.4806 27.1897 30.6088C27.0966 30.8084 26.988 31.0004 26.865 31.183C26.0568 32.3833 24.7136 32.7792 23.391 32.9524C22.0719 33.1252 20.3212 33.1252 18.1895 33.1251H18.1895H9.81136H9.81133C7.67965 33.1252 5.92891 33.1252 4.6098 32.9524C3.28721 32.7792 1.94401 32.3833 1.13585 31.183C1.01286 31.0004 0.904236 30.8084 0.811161 30.6088C0.285295 29.4806 0.496674 28.3508 0.922706 27.3435C1.33581 26.3668 2.0521 25.2654 2.91025 24.0228C3.381 23.3411 4.31523 23.1701 4.99691 23.6409Z" fill="white"/>
<path fill-rule="evenodd" clip-rule="evenodd" d="M14.0008 0.875C9.42447 0.875 5.07812 3.65739 3.26237 8.02362C1.57196 12.0884 2.49093 15.5525 4.3891 18.5034C5.9383 20.9118 8.19868 23.0617 10.2153 24.9797C10.5986 25.3442 10.973 25.7004 11.3321 26.0483L11.3345 26.0507C12.0505 26.7402 13.0066 27.125 14.0008 27.125C14.995 27.125 15.9511 26.7402 16.6671 26.0506C17.0068 25.7234 17.3599 25.3888 17.7209 25.0467C19.7591 23.1153 22.0506 20.9438 23.6159 18.5048C25.5118 15.5509 26.4275 12.0834 24.7392 8.02362C22.9235 3.65739 18.5771 0.875 14.0008 0.875ZM14 8C11.5147 8 9.5 10.0147 9.5 12.5C9.5 14.9853 11.5147 17 14 17C16.4853 17 18.5 14.9853 18.5 12.5C18.5 10.0147 16.4853 8 14 8Z" fill="white"/>
</svg>
