<svg width="17" height="18" viewBox="0 0 17 18" fill="none" xmlns="http://www.w3.org/2000/svg">
<path fill-rule="evenodd" clip-rule="evenodd" d="M8.6665 1.70768C6.82555 1.70768 5.33317 3.20007 5.33317 5.04102V5.45768C5.33317 5.91792 4.96007 6.29102 4.49984 6.29102C4.0396 6.29102 3.6665 5.91792 3.6665 5.45768V5.04102C3.6665 2.27959 5.90508 0.0410156 8.6665 0.0410156C11.4279 0.0410156 13.6665 2.27959 13.6665 5.04102V5.45768C13.6665 5.91792 13.2934 6.29102 12.8332 6.29102C12.3729 6.29102 11.9998 5.91792 11.9998 5.45768V5.04102C11.9998 3.20007 10.5075 1.70768 8.6665 1.70768Z" fill="#999CA6"/>
<path d="M2.86582 4.625C2.45458 4.62495 2.07773 4.6249 1.77585 4.67071C1.44072 4.72157 1.08828 4.84344 0.829452 5.17299C0.576882 5.49456 0.531836 5.86425 0.543056 6.20302C0.553522 6.51902 0.618523 6.90685 0.691726 7.34362L1.52746 12.3326C1.56086 12.532 1.57756 12.6316 1.64747 12.6908C1.71739 12.75 1.81846 12.75 2.02059 12.75H15.3124C15.5145 12.75 15.6156 12.75 15.6855 12.6908C15.7554 12.6316 15.7721 12.532 15.8055 12.3326L16.6413 7.34363C16.7145 6.90687 16.7795 6.51901 16.7899 6.20302C16.8012 5.86425 16.7561 5.49456 16.5036 5.17299C16.2447 4.84344 15.8923 4.72157 15.5571 4.67071C15.2553 4.6249 14.8784 4.62495 14.4672 4.625H2.86582Z" fill="#999CA6"/>
<path d="M15.3313 15.0066C15.3903 14.7377 15.4197 14.6032 15.3447 14.5099C15.2696 14.4167 15.1291 14.4167 14.848 14.4167H2.48499C2.20393 14.4167 2.0634 14.4167 1.98834 14.5099C1.91329 14.6032 1.94275 14.7377 2.00167 15.0066C2.04924 15.2236 2.09889 15.4246 2.15275 15.6101C2.33928 16.2525 2.59608 16.7842 3.05707 17.1957C3.52231 17.6109 4.07088 17.7926 4.71245 17.8774C5.32415 17.9584 6.08768 17.9584 7.02316 17.9583H10.3098C11.2453 17.9584 12.0089 17.9584 12.6206 17.8774C13.2621 17.7926 13.8107 17.6109 14.2759 17.1957C14.7369 16.7842 14.9937 16.2525 15.1803 15.6101C15.2341 15.4246 15.2838 15.2236 15.3313 15.0066Z" fill="#999CA6"/>
</svg>
