<svg width="21" height="22" viewBox="0 0 21 22" fill="none" xmlns="http://www.w3.org/2000/svg">
<path fill-rule="evenodd" clip-rule="evenodd" d="M10.5 2.25C8.29086 2.25 6.5 4.04086 6.5 6.25V6.75C6.5 7.30228 6.05228 7.75 5.5 7.75C4.94772 7.75 4.5 7.30228 4.5 6.75V6.25C4.5 2.93629 7.18629 0.25 10.5 0.25C13.8137 0.25 16.5 2.93629 16.5 6.25V6.75C16.5 7.30228 16.0523 7.75 15.5 7.75C14.9477 7.75 14.5 7.30228 14.5 6.75V6.25C14.5 4.04086 12.7091 2.25 10.5 2.25Z" fill="#667085"/>
<path d="M3.53918 5.75C3.04569 5.74994 2.59347 5.74988 2.23122 5.80485C1.82906 5.86589 1.40613 6.01213 1.09554 6.40759C0.792454 6.79348 0.738399 7.2371 0.751862 7.64362C0.764421 8.02282 0.842423 8.48822 0.930267 9.01234L1.93315 14.9991C1.97323 15.2384 1.99326 15.358 2.07716 15.429C2.16106 15.5 2.28234 15.5 2.52491 15.5H18.4751C18.7177 15.5 18.8389 15.5 18.9228 15.429C19.0067 15.358 19.0268 15.2384 19.0668 14.9991L20.0697 9.01236C20.1576 8.48825 20.2356 8.02281 20.2481 7.64362C20.2616 7.2371 20.2075 6.79348 19.9045 6.40759C19.5939 6.01213 19.1709 5.86589 18.7688 5.80485C18.4065 5.74988 17.9543 5.74994 17.4608 5.75H3.53918Z" fill="#667085"/>
<path d="M18.4978 18.2079C18.5685 17.8852 18.6039 17.7239 18.5138 17.6119C18.4237 17.5 18.2551 17.5 17.9178 17.5H3.08218C2.74491 17.5 2.57627 17.5 2.48621 17.6119C2.39614 17.7239 2.4315 17.8852 2.5022 18.2079C2.55928 18.4683 2.61886 18.7096 2.68349 18.9321C2.90733 19.703 3.2155 20.3411 3.76868 20.8348C4.32696 21.3331 4.98525 21.5511 5.75514 21.6529C6.48918 21.7501 7.40541 21.75 8.52798 21.75H12.472C13.5946 21.75 14.5108 21.7501 15.2449 21.6529C16.0147 21.5511 16.673 21.3331 17.2313 20.8348C17.7845 20.3411 18.0927 19.703 18.3165 18.9321C18.3811 18.7096 18.4407 18.4683 18.4978 18.2079Z" fill="#667085"/>
</svg>
