<svg width="19" height="18" viewBox="0 0 19 18" fill="none" xmlns="http://www.w3.org/2000/svg">
<path fill-rule="evenodd" clip-rule="evenodd" d="M4.30288 10.041H4.36379C4.97975 10.041 5.48601 10.041 5.89559 10.0799C6.3212 10.1204 6.70649 10.2073 7.05695 10.4221C7.40488 10.6353 7.69741 10.9278 7.91063 11.2757C8.12539 11.6262 8.21228 12.0115 8.25274 12.4371C8.29169 12.8467 8.29168 13.3529 8.29167 13.9689V14.0298C8.29168 14.6458 8.29169 15.152 8.25274 15.5616C8.21228 15.9872 8.12539 16.3725 7.91063 16.723C7.69741 17.0709 7.40488 17.3634 7.05695 17.5766C6.70649 17.7914 6.3212 17.8783 5.89559 17.9188C5.48601 17.9577 4.97975 17.9577 4.3638 17.9577H4.30287C3.68692 17.9577 3.18065 17.9577 2.77108 17.9188C2.34546 17.8783 1.96018 17.7914 1.60972 17.5766C1.26178 17.3634 0.969254 17.0709 0.756041 16.723C0.541279 16.3725 0.454392 15.9872 0.413924 15.5616C0.374981 15.152 0.37499 14.6458 0.375 14.0298V13.9689C0.37499 13.3529 0.374981 12.8467 0.413924 12.4371C0.454392 12.0115 0.541279 11.6262 0.756041 11.2757C0.969254 10.9278 1.26178 10.6353 1.60972 10.4221C1.96018 10.2073 2.34546 10.1204 2.77108 10.0799C3.18066 10.041 3.68692 10.041 4.30288 10.041Z" fill="#999CA6"/>
<path fill-rule="evenodd" clip-rule="evenodd" d="M14.3029 10.041H14.3638C14.9797 10.041 15.486 10.041 15.8956 10.0799C16.3212 10.1204 16.7065 10.2073 17.057 10.4221C17.4049 10.6353 17.6974 10.9278 17.9106 11.2757C18.1254 11.6262 18.2123 12.0115 18.2527 12.4371C18.2917 12.8467 18.2917 13.3529 18.2917 13.9689V14.0298C18.2917 14.6458 18.2917 15.152 18.2527 15.5616C18.2123 15.9872 18.1254 16.3725 17.9106 16.723C17.6974 17.0709 17.4049 17.3634 17.057 17.5766C16.7065 17.7914 16.3212 17.8783 15.8956 17.9188C15.486 17.9577 14.9798 17.9577 14.3638 17.9577H14.3029C13.6869 17.9577 13.1807 17.9577 12.7711 17.9188C12.3455 17.8783 11.9602 17.7914 11.6097 17.5766C11.2618 17.3634 10.9693 17.0709 10.756 16.723C10.5413 16.3725 10.4544 15.9872 10.4139 15.5616C10.375 15.152 10.375 14.6458 10.375 14.0298V13.9689C10.375 13.3529 10.375 12.8467 10.4139 12.4371C10.4544 12.0115 10.5413 11.6262 10.756 11.2757C10.9693 10.9278 11.2618 10.6353 11.6097 10.4221C11.9602 10.2073 12.3455 10.1204 12.7711 10.0799C13.1807 10.041 13.6869 10.041 14.3029 10.041Z" fill="#999CA6"/>
<path fill-rule="evenodd" clip-rule="evenodd" d="M4.30288 0.041016H4.36379C4.97975 0.0410054 5.48601 0.0409969 5.89559 0.07994C6.3212 0.120407 6.70649 0.207294 7.05695 0.422057C7.40488 0.63527 7.69741 0.9278 7.91063 1.27573C8.12539 1.62619 8.21228 2.01148 8.25274 2.43709C8.29169 2.84667 8.29168 3.35293 8.29167 3.96888V4.02982C8.29168 4.64577 8.29169 5.15203 8.25274 5.56161C8.21228 5.98722 8.12539 6.37251 7.91063 6.72297C7.69741 7.0709 7.40488 7.36343 7.05695 7.57664C6.70649 7.79141 6.3212 7.87829 5.89559 7.91876C5.48601 7.9577 4.97975 7.95769 4.3638 7.95768H4.30287C3.68692 7.95769 3.18065 7.9577 2.77108 7.91876C2.34546 7.87829 1.96018 7.79141 1.60972 7.57664C1.26178 7.36343 0.969254 7.0709 0.756041 6.72297C0.541279 6.37251 0.454392 5.98722 0.413924 5.56161C0.374981 5.15203 0.37499 4.64576 0.375 4.02981V3.96889C0.37499 3.35294 0.374981 2.84667 0.413924 2.43709C0.454392 2.01148 0.541279 1.62619 0.756041 1.27573C0.969254 0.927801 1.26178 0.63527 1.60972 0.422057C1.96018 0.207294 2.34546 0.120407 2.77108 0.07994C3.18066 0.0409968 3.68692 0.0410054 4.30288 0.041016Z" fill="#999CA6"/>
<path fill-rule="evenodd" clip-rule="evenodd" d="M14.3029 0.041016H14.3638C14.9797 0.0410054 15.486 0.0409969 15.8956 0.07994C16.3212 0.120407 16.7065 0.207294 17.057 0.422057C17.4049 0.63527 17.6974 0.9278 17.9106 1.27573C18.1254 1.62619 18.2123 2.01148 18.2527 2.43709C18.2917 2.84667 18.2917 3.35293 18.2917 3.96888V4.02982C18.2917 4.64577 18.2917 5.15203 18.2527 5.56161C18.2123 5.98722 18.1254 6.37251 17.9106 6.72297C17.6974 7.0709 17.4049 7.36343 17.057 7.57664C16.7065 7.79141 16.3212 7.87829 15.8956 7.91876C15.486 7.9577 14.9798 7.95769 14.3638 7.95768H14.3029C13.6869 7.95769 13.1807 7.9577 12.7711 7.91876C12.3455 7.87829 11.9602 7.79141 11.6097 7.57664C11.2618 7.36343 10.9693 7.0709 10.756 6.72297C10.5413 6.37251 10.4544 5.98722 10.4139 5.56161C10.375 5.15203 10.375 4.64576 10.375 4.02981V3.96889C10.375 3.35294 10.375 2.84667 10.4139 2.43709C10.4544 2.01148 10.5413 1.62619 10.756 1.27573C10.9693 0.927801 11.2618 0.63527 11.6097 0.422057C11.9602 0.207294 12.3455 0.120407 12.7711 0.07994C13.1807 0.0409968 13.6869 0.0410054 14.3029 0.041016Z" fill="#999CA6"/>
</svg>
