<svg width="34" height="27" viewBox="0 0 34 27" fill="none" xmlns="http://www.w3.org/2000/svg">
<path fill-rule="evenodd" clip-rule="evenodd" d="M0.5 8C0.5 7.17157 1.17157 6.5 2 6.5H11C11.8284 6.5 12.5 7.17157 12.5 8C12.5 8.82843 11.8284 9.5 11 9.5H2C1.17157 9.5 0.5 8.82843 0.5 8ZM0.5 12.5C0.5 11.6716 1.17157 11 2 11H8C8.82843 11 9.5 11.6716 9.5 12.5C9.5 13.3284 8.82843 14 8 14H2C1.17157 14 0.5 13.3284 0.5 12.5Z" fill="white"/>
<path fill-rule="evenodd" clip-rule="evenodd" d="M14.6724 0.875052C16.147 0.874471 17.1544 0.874074 18.0059 1.15058C19.2713 1.56153 20.335 2.40105 21.0294 3.50163L23.201 3.50163C24.2333 3.50159 25.1173 3.50156 25.8508 3.57559C26.6349 3.65471 27.368 3.82716 28.0678 4.24488C28.7675 4.6626 29.267 5.22604 29.7084 5.87846C30.1214 6.48886 30.5405 7.26683 31.0298 8.17524L32.9803 11.7956C33.0991 12.0162 33.1571 12.2532 33.16 12.4874L33.1602 12.5073V15.5898C33.1602 17.29 33.1602 18.6796 33.0127 19.7765C32.8584 20.9231 32.5246 21.9173 31.7307 22.7108C31.4308 23.0105 31.1015 23.2452 30.7451 23.4294C30.6053 23.5017 30.5354 23.5378 30.4683 23.5403C30.3497 23.5448 30.2359 23.4755 30.1853 23.3682C30.1567 23.3075 30.1567 23.2096 30.1567 23.0139C30.1567 19.9054 27.6354 17.3855 24.5252 17.3855C21.4151 17.3855 18.8938 19.9054 18.8938 23.0139C18.8938 23.1432 18.8981 23.2715 18.9067 23.3987C18.9309 23.7571 18.943 23.9364 18.8535 24.0316C18.764 24.1269 18.5984 24.1262 18.2673 24.1246L15.7601 24.1131C15.4328 24.1116 15.2691 24.1109 15.1806 24.0159C15.0921 23.921 15.1037 23.7438 15.1271 23.3894C15.1353 23.2653 15.1394 23.1401 15.1394 23.0139C15.1394 19.9054 12.6181 17.3855 9.50794 17.3855C6.39776 17.3855 3.87645 19.9054 3.87645 23.0139C3.87645 23.2097 3.87645 23.3075 3.84784 23.3683C3.79729 23.4756 3.68349 23.5448 3.56492 23.5404C3.49779 23.5379 3.42789 23.5017 3.28809 23.4295C2.93166 23.2452 2.60236 23.0105 2.30246 22.7108C1.24996 21.6588 0.999409 20.245 0.915726 18.5671C0.914842 18.5494 0.914377 18.5316 0.914333 18.5139L0.910314 16.9104C0.909429 16.557 0.908986 16.3804 1.00539 16.291C1.10179 16.2016 1.30277 16.2172 1.70472 16.2484C1.80192 16.2559 1.90016 16.2598 1.99929 16.2598H8.00621C10.0797 16.2598 11.7605 14.5798 11.7605 12.5074C11.7605 12.1418 11.7605 11.959 11.8024 11.8688C11.8291 11.8115 11.836 11.8011 11.8786 11.7545C11.9458 11.6811 12.1152 11.6105 12.4541 11.4692C13.8106 10.9036 14.764 9.56539 14.764 8.00463C14.764 5.93228 13.0831 4.25231 11.0097 4.25231H1.99929C1.68108 4.25231 1.52198 4.25231 1.44173 4.19188C1.38478 4.149 1.3478 4.09297 1.33078 4.02376C1.30681 3.92625 1.35683 3.80952 1.45686 3.57607C1.65597 3.11143 1.92941 2.68706 2.30755 2.30817C3.10198 1.51218 4.09836 1.17756 5.2478 1.02296C6.34753 0.875039 7.74082 0.875069 9.44598 0.875105L14.6724 0.875052ZM28.3404 11.3816C28.7892 11.3816 29.0137 11.3816 29.1011 11.2354C29.1885 11.0891 29.0821 10.8916 28.8693 10.4966L28.419 9.66085C27.8867 8.6728 27.5384 8.03 27.2204 7.55998C26.9214 7.11803 26.7172 6.9352 26.5276 6.82203C26.338 6.70885 26.0802 6.61586 25.5491 6.56226C24.9843 6.50526 24.2529 6.50349 23.1301 6.50349H22.5042C22.2117 6.50349 22.0654 6.50349 21.9772 6.59277C21.8891 6.68205 21.8909 6.83073 21.8947 7.12809C21.8985 7.42634 21.898 7.72469 21.8975 8.02297L21.8972 8.30471C21.8972 9.50979 21.9111 9.84536 21.989 10.0852C22.1747 10.6564 22.6228 11.1042 23.1943 11.2898C23.4343 11.3677 23.77 11.3816 24.9757 11.3816H28.3404Z" fill="white"/>
<circle cx="24.5" cy="23" r="3.75" fill="white"/>
<circle cx="9.5" cy="23" r="3.75" fill="white"/>
</svg>
