<svg width="20" height="21" viewBox="0 0 20 21" fill="none" xmlns="http://www.w3.org/2000/svg">
<g clip-path="url(#clip0_1_24837)">
<path d="M10 20.5C15.5228 20.5 20 16.0228 20 10.5C20 4.97715 15.5228 0.5 10 0.5C4.47715 0.5 0 4.97715 0 10.5C0 16.0228 4.47715 20.5 10 20.5Z" fill="#F0F0F0"/>
<path d="M2.28589 4.13652H17.7143C17.1445 3.44648 16.4835 2.83457 15.7504 2.31836H4.24983C3.51667 2.83449 2.85577 3.44645 2.28589 4.13652Z" fill="#F0F0F0"/>
<path d="M0 10.5009C0 10.8074 0.0145703 11.1104 0.0415625 11.41H19.9584C19.9854 11.1104 20 10.8074 20 10.5009C20 10.1943 19.9854 9.89129 19.9584 9.5918H0.0415625C0.0145703 9.89129 0 10.1943 0 10.5009Z" fill="#F0F0F0"/>
<path d="M1.09062 15.0447H18.9097C19.2041 14.4687 19.4443 13.8604 19.6236 13.2266H0.376709C0.555967 13.8604 0.796201 14.4687 1.09062 15.0447Z" fill="#F0F0F0"/>
<path d="M4.24983 18.6815H15.7503C16.4835 18.1652 17.1444 17.5533 17.7143 16.8633H2.28589C2.85577 17.5532 3.51667 18.1652 4.24983 18.6815Z" fill="#F0F0F0"/>
<path d="M0.376709 7.77324H19.6237C19.4444 7.13934 19.2042 6.53105 18.9097 5.95508H1.09065C0.79624 6.53105 0.556006 7.13934 0.376709 7.77324Z" fill="#F0F0F0"/>
<path d="M4.78223 2.31816H15.7499C14.1233 1.17293 12.1401 0.5 9.99961 0.5C8.69527 0.5 6.40879 1.17293 4.78223 2.31816Z" fill="#D80027"/>
<path d="M9.56519 5.95488H18.9095C18.5769 5.30437 18.1753 4.69504 17.7142 4.13672H9.56519V5.95488Z" fill="#D80027"/>
<path d="M9.56519 9.58964H19.9584C19.9021 8.96535 19.7891 8.35738 19.6234 7.77148H9.56519V9.58964Z" fill="#D80027"/>
<path d="M0.37626 13.2283H19.6231C19.7888 12.6425 19.9019 12.0345 19.9581 11.4102H0.0412598C0.0975098 12.0345 0.210557 12.6424 0.37626 13.2283Z" fill="#D80027"/>
<path d="M2.28564 16.8631H17.7141C18.1752 16.3047 18.5769 15.6954 18.9094 15.0449H1.09033C1.42287 15.6954 1.82451 16.3048 2.28564 16.8631Z" fill="#D80027"/>
<path d="M9.99954 20.4998C12.14 20.4998 14.1233 19.8269 15.7498 18.6816H4.24927C5.87583 19.8269 7.85903 20.4998 9.99954 20.4998Z" fill="#D80027"/>
<path d="M0.376465 7.77273C0.210762 8.35867 0.0977539 8.9666 0.0415039 9.5909H9.99994V0.5C5.42259 0.5 1.56365 3.57547 0.376465 7.77273Z" fill="#0052B4"/>
<path d="M5.95313 3.10938L6.6006 5.10215H8.69614L7.00091 6.33387L7.64833 8.32676L5.95313 7.09512L4.25786 8.32676L4.90544 6.33387L3.21021 5.10215H5.30563L5.95313 3.10938Z" fill="#F0F0F0"/>
</g>
<defs>
<clipPath id="clip0_1_24837">
<rect width="20" height="20" fill="white" transform="translate(0 0.5)"/>
</clipPath>
</defs>
</svg>
