<svg width="14" height="18" viewBox="0 0 14 18" fill="none" xmlns="http://www.w3.org/2000/svg">
<path fill-rule="evenodd" clip-rule="evenodd" d="M1.63236 7.50825C0.730262 7.50825 0.541992 7.68011 0.541992 8.50362V9.99667C0.541992 10.8202 0.730262 10.992 1.63236 10.992H3.8131V16.9643C3.8131 17.7878 4.00137 17.9596 4.90346 17.9596H7.0842C7.9863 17.9596 8.17457 17.7878 8.17457 16.9643V10.992H10.6232C11.3074 10.992 11.4837 10.8706 11.6716 10.2701L12.1389 8.77707C12.4609 7.74835 12.2625 7.50825 11.0905 7.50825H8.17457V5.01982C8.17457 4.47009 8.66274 4.02445 9.26494 4.02445H12.3683C13.2704 4.02445 13.4587 3.85258 13.4587 3.02908V1.03834C13.4587 0.214836 13.2704 0.0429688 12.3683 0.0429688H9.26494C6.25397 0.0429688 3.8131 2.27118 3.8131 5.01982V7.50825H1.63236Z" fill="#667085"/>
</svg>
