<svg width="37" height="37" viewBox="0 0 37 37" fill="none" xmlns="http://www.w3.org/2000/svg">
<circle cx="18.2139" cy="18.25" r="18" fill="#F7F9FC"/>
<rect width="20" height="20" transform="translate(8.21387 8.25)" fill="#F7F9FC"/>
<path d="M24.433 11.5785C22.1983 10.2077 20.2478 10.7601 19.0762 11.64C18.5957 12.0008 18.3555 12.1812 18.2142 12.1812C18.0729 12.1812 17.8327 12.0008 17.3522 11.64L17.3522 11.64C16.1805 10.7601 14.2301 10.2077 11.9954 11.5785C9.06258 13.3774 8.39896 19.3124 15.1638 24.3195C16.4523 25.2732 17.0965 25.75 18.2142 25.75C19.3318 25.75 19.9761 25.2732 21.2646 24.3195C28.0294 19.3124 27.3658 13.3774 24.433 11.5785Z" stroke="#667085" stroke-width="1.5" stroke-linecap="round"/>
</svg>
