<svg width="18" height="18" viewBox="0 0 18 18" fill="none" xmlns="http://www.w3.org/2000/svg">
<path fill-rule="evenodd" clip-rule="evenodd" d="M6.93683 0.662636C7.63339 0.271752 8.27861 0.0410156 9.00033 0.0410156C9.72205 0.0410156 10.3673 0.271752 11.0638 0.662636C11.7387 1.04137 12.5121 1.60055 13.4846 2.30369L13.4846 2.30372L14.7421 3.21296C15.5226 3.77724 16.1459 4.22793 16.6161 4.64508C17.1015 5.07579 17.4647 5.50518 17.6951 6.0453C17.926 6.58659 17.9818 7.14139 17.9508 7.78108C17.9209 8.3984 17.8065 9.1432 17.6637 10.0719L17.401 11.7816C17.1982 13.1014 17.0367 14.1524 16.7995 14.9711C16.5541 15.8178 16.2085 16.4899 15.5908 17.0037C14.9757 17.5153 14.2429 17.7432 13.3478 17.8519C12.477 17.9577 11.3785 17.9577 9.99109 17.9577H8.00957C6.62212 17.9577 5.52366 17.9577 4.65288 17.8519C3.75775 17.7432 3.02497 17.5153 2.40983 17.0037C1.79212 16.4899 1.44653 15.8178 1.2012 14.9711C0.963948 14.1524 0.802456 13.1014 0.599645 11.7816L0.336931 10.072C0.194192 9.14324 0.0797244 8.39842 0.0498362 7.78108C0.0188658 7.14139 0.0747036 6.58659 0.305574 6.0453C0.535941 5.50518 0.899117 5.07579 1.38457 4.64508C1.85473 4.22793 2.47807 3.77724 3.25852 3.21295L4.51605 2.30372C5.48855 1.60056 6.26191 1.04138 6.93683 0.662636ZM7.01224 12.5085C6.64907 12.2258 6.12548 12.291 5.84277 12.6542C5.56007 13.0174 5.62531 13.5409 5.98848 13.8236C6.80372 14.4582 7.85977 14.8327 9.00036 14.8327C10.141 14.8327 11.197 14.4582 12.0122 13.8236C12.3754 13.5409 12.4407 13.0174 12.158 12.6542C11.8753 12.291 11.3517 12.2258 10.9885 12.5085C10.4712 12.9111 9.77684 13.1661 9.00036 13.1661C8.22388 13.1661 7.52955 12.9111 7.01224 12.5085Z" fill="#FF5C01"/>
</svg>
