<svg width="18" height="18" viewBox="0 0 18 18" fill="none" xmlns="http://www.w3.org/2000/svg">
<path fill-rule="evenodd" clip-rule="evenodd" d="M9.04732 0.45768C10.8729 0.457668 12.3068 0.457661 13.4263 0.608175C14.5735 0.762413 15.4838 1.08494 16.1989 1.80011C16.9141 2.51527 17.2366 3.42548 17.3908 4.5727C17.5414 5.6922 17.5414 7.12609 17.5413 8.95165V8.95167V8.95169V8.95171V9.04699V9.04701V9.04703V9.04705C17.5414 10.8726 17.5414 12.3065 17.3908 13.426C17.2366 14.5732 16.9141 15.4834 16.1989 16.1986C15.4838 16.9138 14.5735 17.2363 13.4263 17.3905C12.3068 17.541 10.8729 17.541 9.04735 17.541H9.04733H9.04731H8.95204H8.95202H8.952C7.12642 17.541 5.69254 17.541 4.57303 17.3905C3.42581 17.2363 2.5156 16.9138 1.80044 16.1986C1.08527 15.4834 0.762742 14.5732 0.608503 13.426C0.457989 12.3065 0.457997 10.8726 0.458008 9.04701V9.04699V8.9517V8.95169C0.457997 7.12611 0.457989 5.69221 0.608503 4.5727C0.762742 3.42549 1.08527 2.51527 1.80044 1.80011C2.5156 1.08494 3.42581 0.762413 4.57303 0.608175C5.69254 0.457661 7.12644 0.457668 8.95203 0.45768H9.04732ZM12.7497 8.99934C12.7497 11.0704 11.0707 12.7493 8.99967 12.7493C6.92861 12.7493 5.24967 11.0704 5.24967 8.99934C5.24967 6.92828 6.92861 5.24934 8.99967 5.24934C11.0707 5.24934 12.7497 6.92828 12.7497 8.99934ZM13.5932 5.24934C14.0514 5.24934 14.4229 4.87625 14.4229 4.41601C14.4229 3.95577 14.0514 3.58268 13.5932 3.58268H13.5858C13.1276 3.58268 12.7562 3.95577 12.7562 4.41601C12.7562 4.87625 13.1276 5.24934 13.5858 5.24934H13.5932Z" fill="#667085"/>
</svg>
