<svg width="46" height="55" viewBox="0 0 46 55" fill="none" xmlns="http://www.w3.org/2000/svg">
<path d="M39.0003 43.5C42.3196 44.6318 44.3337 46.1184 44.3337 47.7466C44.3337 51.2923 34.7824 54.1667 23.0003 54.1667C11.2182 54.1667 1.66699 51.2923 1.66699 47.7466C1.66699 46.1184 3.68105 44.6318 7.00033 43.5" stroke="#667085" stroke-width="1.5" stroke-linecap="round"/>
<path d="M31 20.834C31 25.2523 27.4183 28.834 23 28.834C18.5817 28.834 15 25.2523 15 20.834C15 16.4157 18.5817 12.834 23 12.834C27.4183 12.834 31 16.4157 31 20.834Z" stroke="#667085" stroke-width="1.5"/>
<path d="M23 0.833984C33.8235 0.833984 43 9.9754 43 21.0657C43 32.3327 33.674 40.2393 25.06 45.6158C24.4322 45.9773 23.7223 46.1673 23 46.1673C22.2777 46.1673 21.5678 45.9773 20.94 45.6158C12.342 40.1869 3 32.3716 3 21.0657C3 9.9754 12.1765 0.833984 23 0.833984Z" stroke="#667085" stroke-width="1.5"/>
</svg>
