<svg width="20" height="20" viewBox="0 0 20 20" fill="none" xmlns="http://www.w3.org/2000/svg">
<path d="M15 15C16.0373 15.3537 16.6667 15.8182 16.6667 16.3271C16.6667 17.4351 13.6819 18.3333 9.99999 18.3333C6.3181 18.3333 3.33333 17.4351 3.33333 16.3271C3.33333 15.8182 3.96272 15.3537 5 15" stroke="#667085" stroke-width="1.5" stroke-linecap="round"/>
<path d="M12.5 7.91602C12.5 9.29673 11.3807 10.416 10 10.416C8.61929 10.416 7.5 9.29673 7.5 7.91602C7.5 6.5353 8.61929 5.41602 10 5.41602C11.3807 5.41602 12.5 6.5353 12.5 7.91602Z" stroke="#667085" stroke-width="1.5"/>
<path d="M10 1.66602C13.3823 1.66602 16.25 4.52271 16.25 7.98843C16.25 11.5094 13.3356 13.9802 10.6437 15.6603C10.4476 15.7733 10.2257 15.8327 10 15.8327C9.77427 15.8327 9.55243 15.7733 9.35625 15.6603C6.66937 13.9638 3.75 11.5215 3.75 7.98843C3.75 4.52271 6.61767 1.66602 10 1.66602Z" stroke="#667085" stroke-width="1.5"/>
</svg>
