<svg width="41" height="41" viewBox="0 0 41 41" fill="none" xmlns="http://www.w3.org/2000/svg">
<g filter="url(#filter0_d_1_19490)">
<rect x="2.5" y="1.5" width="36" height="36" rx="18" fill="#FFDBDC"/>
<path fill-rule="evenodd" clip-rule="evenodd" d="M27.0699 12.9301C27.4767 13.3369 27.4767 13.9964 27.0699 14.4032L15.4032 26.0699C14.9964 26.4767 14.3369 26.4767 13.9301 26.0699C13.5233 25.6631 13.5233 25.0036 13.9301 24.5968L25.5968 12.9301C26.0036 12.5233 26.6631 12.5233 27.0699 12.9301Z" fill="#FF4C51"/>
<path fill-rule="evenodd" clip-rule="evenodd" d="M13.9301 12.9301C14.3369 12.5233 14.9964 12.5233 15.4032 12.9301L27.0699 24.5968C27.4767 25.0036 27.4767 25.6631 27.0699 26.0699C26.6631 26.4767 26.0036 26.4767 25.5968 26.0699L13.9301 14.4032C13.5233 13.9964 13.5233 13.3369 13.9301 12.9301Z" fill="#FF4C51"/>
</g>
<defs>
<filter id="filter0_d_1_19490" x="0.5" y="0.5" width="40" height="40" filterUnits="userSpaceOnUse" color-interpolation-filters="sRGB">
<feFlood flood-opacity="0" result="BackgroundImageFix"/>
<feColorMatrix in="SourceAlpha" type="matrix" values="0 0 0 0 0 0 0 0 0 0 0 0 0 0 0 0 0 0 127 0" result="hardAlpha"/>
<feOffset dy="1"/>
<feGaussianBlur stdDeviation="1"/>
<feColorMatrix type="matrix" values="0 0 0 0 0.0627451 0 0 0 0 0.0941176 0 0 0 0 0.156863 0 0 0 0.05 0"/>
<feBlend mode="normal" in2="BackgroundImageFix" result="effect1_dropShadow_1_19490"/>
<feBlend mode="normal" in="SourceGraphic" in2="effect1_dropShadow_1_19490" result="shape"/>
</filter>
</defs>
</svg>
