<svg width="34" height="34" viewBox="0 0 34 34" fill="none" xmlns="http://www.w3.org/2000/svg">
<path fill-rule="evenodd" clip-rule="evenodd" d="M11.7913 0.875001L22.2087 0.875001H22.2087C23.5633 0.874968 24.6963 0.874941 25.6249 0.97181C26.607 1.07425 27.4949 1.29535 28.3148 1.81969C29.1347 2.34404 29.6889 3.04522 30.1652 3.87545C30.6156 4.66052 31.0514 5.66384 31.5723 6.86333L33.0119 10.1776C33.1096 10.4026 33.1418 10.6382 33.1169 10.8647C33.1223 10.9091 33.125 10.9542 33.125 11V19.2308C33.125 22.1867 33.125 24.5239 32.8701 26.3521C32.6076 28.2351 32.0556 29.7435 30.8283 30.9269C29.6067 32.1049 28.0593 32.6297 26.1265 32.8803C24.2388 33.125 21.822 33.125 18.7494 33.125H18.7493H15.2507H15.2506C12.178 33.125 9.76125 33.125 7.87355 32.8803C5.94065 32.6297 4.39328 32.1049 3.17172 30.9269C1.94444 29.7435 1.39239 28.2351 1.12986 26.3521C0.874958 24.5239 0.874977 22.1867 0.875 19.2308V19.2307L0.875 11C0.875 10.9542 0.877737 10.9091 0.883055 10.8647C0.858154 10.6382 0.89039 10.4026 0.988142 10.1776L2.42768 6.86334C2.94863 5.66384 3.38439 4.66052 3.83478 3.87545C4.31108 3.04522 4.86532 2.34404 5.68521 1.81969C6.5051 1.29535 7.39298 1.07425 8.37506 0.97181C9.3037 0.874941 10.4367 0.874968 11.7913 0.875001H11.7913ZM4.29563 9.875L15.5 9.875L15.5 3.68741L11.8694 3.68741C10.4165 3.68741 9.44359 3.68934 8.69199 3.76774C7.97603 3.84242 7.59943 3.97559 7.31145 4.15976C7.02347 4.34393 6.75049 4.62619 6.40325 5.23145C6.03874 5.86684 5.6627 6.72759 5.10387 8.01419L4.29563 9.875ZM18.5 9.875L29.7044 9.875L28.8961 8.01419C28.3373 6.72759 27.9613 5.86684 27.5967 5.23145C27.2495 4.62619 26.9765 4.34392 26.6886 4.15976C26.4006 3.97559 26.024 3.84242 25.308 3.76774C24.5564 3.68934 23.5835 3.68741 22.1306 3.68741L18.5 3.68741V9.875ZM12.5 17C12.5 16.1716 13.1716 15.5 14 15.5H20C20.8284 15.5 21.5 16.1716 21.5 17C21.5 17.8284 20.8284 18.5 20 18.5L14 18.5C13.1716 18.5 12.5 17.8284 12.5 17Z" fill="white"/>
</svg>
