<svg width="18" height="18" viewBox="0 0 18 18" fill="none" xmlns="http://www.w3.org/2000/svg">
<path d="M13.8381 11.3637C13.935 11.4214 14.0548 11.4889 14.1903 11.5654C14.7843 11.9005 15.6823 12.4071 16.2974 13.0092C16.6821 13.3858 17.0477 13.882 17.1141 14.49C17.1848 15.1365 16.9027 15.7432 16.3369 16.2823C15.3607 17.2124 14.1892 17.9577 12.6739 17.9577H5.32538C3.81013 17.9577 2.63864 17.2124 1.66243 16.2823C1.09658 15.7432 0.81453 15.1365 0.885202 14.49C0.951657 13.882 1.3172 13.3858 1.70192 13.0092C2.31706 12.4071 3.21499 11.9005 3.809 11.5654C3.94455 11.4889 4.06429 11.4214 4.16121 11.3637C7.12292 9.60013 10.8764 9.60013 13.8381 11.3637Z" fill="#999CA6"/>
<path d="M4.62466 4.41602C4.62466 1.99977 6.58341 0.0410156 8.99966 0.0410156C11.4159 0.0410156 13.3747 1.99977 13.3747 4.41602C13.3747 6.83226 11.4159 8.79102 8.99966 8.79102C6.58341 8.79102 4.62466 6.83226 4.62466 4.41602Z" fill="#999CA6"/>
</svg>
