<svg width="18" height="20" viewBox="0 0 18 20" fill="none" xmlns="http://www.w3.org/2000/svg">
<path d="M17.7552 16.9997L14.2499 13.2609C14.0917 13.0922 13.8772 12.9984 13.6522 12.9984H13.0791C14.0495 11.6747 14.6261 10.0097 14.6261 8.19844C14.6261 3.88969 11.3528 0.398438 7.31303 0.398438C3.27329 0.398438 0 3.88969 0 8.19844C0 12.5072 3.27329 15.9984 7.31303 15.9984C9.01121 15.9984 10.5723 15.3834 11.8134 14.3484V14.9597C11.8134 15.1997 11.9013 15.4284 12.0595 15.5972L15.5648 19.3359C15.8953 19.6884 16.4297 19.6884 16.7567 19.3359L17.7517 18.2747C18.0822 17.9222 18.0822 17.3522 17.7552 16.9997ZM7.31303 12.9984C4.82731 12.9984 2.81271 10.8534 2.81271 8.19844C2.81271 5.54719 4.82379 3.39844 7.31303 3.39844C9.79876 3.39844 11.8134 5.54344 11.8134 8.19844C11.8134 10.8497 9.80228 12.9984 7.31303 12.9984Z" fill="#FF5C01"/>
</svg>
