<svg width="18" height="17" viewBox="0 0 18 17" fill="none" xmlns="http://www.w3.org/2000/svg">
<path d="M16.7831 12.2414C14.6173 11.885 13.6413 9.66662 13.6018 9.57245L13.5927 9.55423C13.4823 9.32945 13.456 9.14417 13.5168 9.00343C13.6352 8.726 14.0888 8.58223 14.3885 8.48705C14.4756 8.45972 14.5576 8.43339 14.6254 8.40707C14.9211 8.29063 15.1317 8.16407 15.2714 8.0213C15.4375 7.85019 15.4699 7.68617 15.4678 7.57985C15.4628 7.32065 15.2643 7.0898 14.9474 6.97742C14.8353 6.93277 14.7157 6.91009 14.5951 6.91059C14.4822 6.90901 14.3703 6.9318 14.267 6.97742C14.0139 7.09588 13.7871 7.16068 13.5917 7.16979C13.5147 7.16763 13.4388 7.15115 13.3679 7.12119L13.3871 6.80833L13.3902 6.76175C13.4601 5.66522 13.5461 4.30138 13.1836 3.49138C12.9504 2.95758 12.6135 2.47541 12.1924 2.07287C11.8451 1.74605 11.444 1.48162 11.0068 1.29122C10.4231 1.03658 9.79369 0.903595 9.15693 0.900391L9.11642 0.900391L8.83799 0.903428C8.47855 0.903428 7.75866 0.954053 6.98612 1.29425C6.55018 1.48435 6.15041 1.74846 5.80454 2.07489C5.38554 2.47716 5.05006 2.95818 4.81735 3.49037C4.45487 4.29935 4.54094 5.66319 4.60979 6.75872V6.76074L4.63206 7.12018C4.5481 7.15515 4.45771 7.17205 4.36679 7.16979C4.16226 7.16979 3.91926 7.10499 3.64487 6.9764C3.55864 6.93772 3.46499 6.91837 3.37049 6.9197C3.1997 6.92144 3.0324 6.96824 2.8855 7.05538C2.69717 7.16574 2.57567 7.32065 2.54226 7.49379C2.521 7.60719 2.52201 7.83298 2.77311 8.0618C2.91182 8.18735 3.11432 8.30379 3.37656 8.40707C3.44541 8.4344 3.52742 8.45972 3.61349 8.48705C3.91319 8.58223 4.3678 8.726 4.48626 9.00343C4.546 9.14417 4.51967 9.32945 4.40931 9.55423L4.40121 9.57245C4.18975 10.0292 3.91503 10.4539 3.58514 10.834C3.30051 11.1694 2.96905 11.4619 2.60099 11.7028C2.18231 11.9754 1.71176 12.1584 1.21892 12.2404C1.12658 12.2553 1.04304 12.3039 0.984494 12.3769C0.925947 12.4498 0.896555 12.5419 0.90201 12.6353C0.905048 12.691 0.91821 12.7466 0.941498 12.8003V12.8013C1.01946 12.9826 1.19867 13.1354 1.49027 13.2701C1.84667 13.4351 2.37925 13.5739 3.07484 13.6822C3.11027 13.749 3.14672 13.9161 3.17204 14.0305C3.19836 14.152 3.2257 14.2775 3.26519 14.4102C3.30771 14.554 3.41706 14.7261 3.69955 14.7261C3.80687 14.7261 3.92939 14.7018 4.07215 14.6744C4.28072 14.6339 4.56625 14.5783 4.92164 14.5783C5.11907 14.5783 5.3236 14.5955 5.52914 14.6299C5.92604 14.6957 6.26826 14.9367 6.66415 15.2161C7.2433 15.6252 7.8994 16.0879 8.90177 16.0879L8.98379 16.0849C9.01619 16.0869 9.0577 16.0879 9.10022 16.0879C10.1026 16.0879 10.7587 15.6252 11.3378 15.2171L11.3389 15.2161C11.7347 14.9377 12.077 14.6967 12.4739 14.6309C12.6794 14.5965 12.8839 14.5793 13.0814 14.5793C13.4216 14.5793 13.6909 14.6228 13.9309 14.6694C14.0878 14.6998 14.2093 14.7149 14.3035 14.7149H14.3217C14.4163 14.7191 14.5094 14.6905 14.5852 14.6338C14.6611 14.5772 14.715 14.496 14.7378 14.4041C14.7734 14.2797 14.8045 14.1541 14.831 14.0275C14.8543 13.9201 14.8927 13.748 14.9272 13.6812C15.6228 13.5718 16.1553 13.4341 16.5117 13.2691C16.8023 13.1344 16.9815 12.9815 17.0595 12.8013C17.0829 12.7485 17.0966 12.6919 17.1 12.6343C17.1052 12.5412 17.0756 12.4495 17.0171 12.3769C16.9585 12.3043 16.8752 12.256 16.7831 12.2414Z" fill="#667085"/>
</svg>
