<svg width="19" height="19" viewBox="0 0 19 19" fill="none" xmlns="http://www.w3.org/2000/svg">
<path d="M15.1895 8.75028V6.36391C15.1895 5.09398 15.1895 4.45902 14.9885 3.95188C14.6654 3.1366 13.9821 2.49351 13.1159 2.18943C12.577 2.00028 11.9024 2.00028 10.5531 2.00028C8.19181 2.00028 7.01117 2.00028 6.06822 2.33129C4.55231 2.86344 3.35656 3.98884 2.79116 5.41559C2.43945 6.30307 2.43945 7.41426 2.43945 9.63664V11.5457C2.43945 13.8478 2.43945 14.9988 3.07523 15.7981C3.25739 16.0271 3.47342 16.2305 3.71676 16.4019C4.50043 16.954 5.60225 16.9967 7.68945 17" stroke="#667085" stroke-width="1.5" stroke-linecap="round" stroke-linejoin="round"/>
<path d="M2.43945 9.5C2.43945 8.11929 3.55874 7 4.93945 7C5.43879 7 6.02748 7.08749 6.51298 6.95741C6.94434 6.84182 7.28128 6.50489 7.39686 6.07352C7.52695 5.58803 7.43945 4.99934 7.43945 4.5C7.43945 3.11929 8.55874 2 9.93945 2" stroke="#667085" stroke-width="1.5" stroke-linecap="round" stroke-linejoin="round"/>
<path d="M10.9502 16.8918L10.7934 16.1584H10.7934L10.9502 16.8918ZM10.0477 15.9892L10.7811 16.146L10.0477 15.9892ZM10.705 14.0838L10.1746 13.5535H10.1746L10.705 14.0838ZM15.7866 12.108L16.4362 11.733V11.733L15.7866 12.108ZM15.7866 13.2486L16.4362 13.6236L15.7866 13.2486ZM14.8315 11.1528L15.2065 10.5033H15.2065L14.8315 11.1528ZM13.1858 11.6029L13.7162 12.1332L13.1858 11.6029ZM13.6909 11.1528L13.3159 10.5033L13.6909 11.1528ZM14.8062 13.2233L12.3253 15.7042L13.386 16.7648L15.8669 14.2839L14.8062 13.2233ZM11.2353 14.6141L13.7162 12.1332L12.6555 11.0726L10.1746 13.5535L11.2353 14.6141ZM10.7934 16.1584C10.6611 16.1867 10.5586 16.2085 10.4713 16.2248C10.3828 16.2412 10.3316 16.2476 10.3022 16.2495C10.2714 16.2515 10.2959 16.246 10.3482 16.2595C10.4129 16.2762 10.4914 16.3145 10.5582 16.3812L9.49754 17.4419C9.79696 17.7413 10.1677 17.7611 10.3974 17.7465C10.6137 17.7327 10.8727 17.6753 11.1071 17.6252L10.7934 16.1584ZM9.31424 15.8324C9.26412 16.0668 9.20673 16.3257 9.19297 16.542C9.17836 16.7718 9.19812 17.1425 9.49754 17.4419L10.5582 16.3812C10.625 16.448 10.6633 16.5266 10.68 16.5913C10.6934 16.6435 10.688 16.6681 10.6899 16.6372C10.6918 16.6078 10.6983 16.5566 10.7147 16.4682C10.7309 16.3808 10.7528 16.2784 10.7811 16.146L9.31424 15.8324ZM14.8062 12.1332C14.936 12.2631 15.0156 12.3428 15.0733 12.406C15.1282 12.4663 15.1381 12.4846 15.1371 12.483L16.4362 11.733C16.2993 11.4959 16.0827 11.2884 15.8669 11.0726L14.8062 12.1332ZM15.8669 14.2839C16.0827 14.0681 16.2993 13.8607 16.4362 13.6236L15.1371 12.8736C15.1381 12.8719 15.1282 12.8903 15.0733 12.9505C15.0156 13.0137 14.936 13.0935 14.8062 13.2233L15.8669 14.2839ZM15.1371 12.483C15.2069 12.6038 15.2069 12.7527 15.1371 12.8736L16.4362 13.6236C16.7739 13.0386 16.7739 12.3179 16.4362 11.733L15.1371 12.483ZM15.8669 11.0726C15.651 10.8567 15.4436 10.6402 15.2065 10.5033L14.4565 11.8023C14.4549 11.8014 14.4732 11.8112 14.5334 11.8662C14.5966 11.9239 14.6764 12.0034 14.8062 12.1332L15.8669 11.0726ZM13.7162 12.1332C13.846 12.0034 13.9258 11.9239 13.989 11.8662C14.0492 11.8112 14.0675 11.8014 14.0659 11.8023L13.3159 10.5033C13.0788 10.6402 12.8714 10.8567 12.6555 11.0726L13.7162 12.1332ZM15.2065 10.5033C14.6215 10.1656 13.9008 10.1656 13.3159 10.5033L14.0659 11.8023C14.1867 11.7326 14.3356 11.7326 14.4565 11.8023L15.2065 10.5033ZM12.3253 15.7042C12.2124 15.8171 12.0489 15.9005 11.7797 15.9693C11.6448 16.0037 11.4989 16.0308 11.3298 16.06C11.1695 16.0877 10.9776 16.119 10.7934 16.1584L11.1071 17.6252C11.2537 17.5939 11.4036 17.5695 11.5851 17.5381C11.7578 17.5083 11.954 17.4729 12.1508 17.4226C12.545 17.322 13.0033 17.1475 13.386 16.7648L12.3253 15.7042ZM10.7811 16.146C10.8205 15.9618 10.8517 15.77 10.8794 15.6097C10.9086 15.4405 10.9358 15.2947 10.9702 15.1597C11.0389 14.8906 11.1224 14.727 11.2353 14.6141L10.1746 13.5535C9.79192 13.9362 9.61747 14.3945 9.51682 14.7887C9.46659 14.9854 9.43115 15.1816 9.40131 15.3543C9.36994 15.5359 9.3456 15.6857 9.31424 15.8324L10.7811 16.146Z" fill="#667085"/>
</svg>
