<svg width="405" height="341" viewBox="0 0 405 341" fill="none" xmlns="http://www.w3.org/2000/svg">
<g opacity="0.1">
<path d="M302.14 240.439C302.189 240.439 302.237 240.449 302.275 240.471L353.508 265.493C353.594 265.534 353.642 265.611 353.642 265.693V315.741C353.642 315.823 353.588 315.9 353.508 315.941L302.275 340.963C302.189 341.004 302.086 341.004 302 340.963L250.767 315.941C250.681 315.9 250.633 315.823 250.633 315.741V265.693C250.633 265.611 250.687 265.534 250.767 265.493L302 240.471C302.043 240.449 302.092 240.439 302.135 240.439H302.14ZM353.099 265.83L302.14 240.94L251.182 265.83V315.609L302.14 340.499L353.099 315.609V265.83Z" fill="black"/>
<path d="M302.14 240.439C302.29 240.439 302.414 240.544 302.414 240.672V340.767C302.414 340.895 302.29 341 302.14 341C301.989 341 301.865 340.895 301.865 340.767V240.672C301.865 240.544 301.989 240.439 302.14 240.439Z" fill="black"/>
<path d="M250.907 265.465C250.955 265.465 250.998 265.474 251.041 265.497L353.502 315.545C353.631 315.608 353.679 315.749 353.604 315.863C353.529 315.972 353.362 316.013 353.228 315.95L250.767 265.902C250.638 265.838 250.589 265.697 250.665 265.583C250.713 265.51 250.81 265.469 250.901 265.469L250.907 265.465Z" fill="black"/>
<path d="M353.372 265.465C353.469 265.465 353.561 265.506 353.609 265.579C353.684 265.688 353.641 265.834 353.507 265.898L251.046 315.946C250.917 316.009 250.75 315.973 250.67 315.859C250.594 315.75 250.637 315.604 250.772 315.541L353.233 265.493C353.276 265.47 353.324 265.461 353.367 265.461L353.372 265.465Z" fill="black"/>
<path d="M199.68 240.439C199.729 240.439 199.777 240.449 199.815 240.471L251.048 265.493C251.134 265.534 251.182 265.611 251.182 265.693V315.741C251.182 315.823 251.128 315.9 251.048 315.941L199.815 340.963C199.729 341.004 199.626 341.004 199.54 340.963L148.307 315.941C148.221 315.9 148.173 315.823 148.173 315.741V265.693C148.173 265.611 148.227 265.534 148.307 265.493L199.54 240.471C199.583 240.449 199.632 240.439 199.675 240.439H199.68ZM250.639 265.83L199.68 240.94L148.722 265.83V315.609L199.68 340.499L250.639 315.609V265.83Z" fill="black"/>
<path d="M199.68 240.439C199.83 240.439 199.954 240.544 199.954 240.672V340.767C199.954 340.895 199.83 341 199.68 341C199.529 341 199.405 340.895 199.405 340.767V240.672C199.405 240.544 199.529 240.439 199.68 240.439Z" fill="black"/>
<path d="M148.448 265.465C148.496 265.465 148.539 265.474 148.582 265.497L251.043 315.545C251.172 315.608 251.22 315.749 251.145 315.863C251.07 315.972 250.903 316.013 250.768 315.95L148.308 265.902C148.179 265.838 148.13 265.697 148.206 265.583C148.254 265.51 148.351 265.469 148.442 265.469L148.448 265.465Z" fill="black"/>
<path d="M250.908 265.465C251.004 265.465 251.096 265.506 251.144 265.579C251.22 265.688 251.177 265.834 251.042 265.898L148.581 315.946C148.452 316.009 148.286 315.973 148.205 315.859C148.13 315.75 148.173 315.604 148.307 315.541L250.768 265.493C250.811 265.47 250.859 265.461 250.902 265.461L250.908 265.465Z" fill="black"/>
<path d="M97.2193 240.439C97.2677 240.439 97.3161 240.449 97.3538 240.471L148.587 265.493C148.673 265.534 148.721 265.611 148.721 265.693V315.741C148.721 315.823 148.667 315.9 148.587 315.941L97.3538 340.963C97.2677 341.004 97.1655 341.004 97.0794 340.963L45.8464 315.941C45.7603 315.9 45.7119 315.823 45.7119 315.741V265.693C45.7119 265.611 45.7657 265.534 45.8464 265.493L97.0794 240.471C97.1225 240.449 97.1709 240.439 97.2139 240.439H97.2193ZM148.178 265.83L97.2193 240.94L46.2606 265.83V315.609L97.2193 340.499L148.178 315.609V265.83Z" fill="black"/>
<path d="M97.2187 240.439C97.3693 240.439 97.493 240.544 97.493 240.672V340.767C97.493 340.895 97.3693 341 97.2187 341C97.0681 341 96.9443 340.895 96.9443 340.767V240.672C96.9443 240.544 97.0681 240.439 97.2187 240.439Z" fill="black"/>
<path d="M45.9858 265.465C46.0342 265.465 46.0772 265.474 46.1202 265.497L148.581 315.545C148.71 315.608 148.758 315.749 148.683 315.863C148.608 315.972 148.441 316.013 148.307 315.95L45.8459 265.902C45.7168 265.838 45.6684 265.697 45.7437 265.583C45.7921 265.51 45.889 265.469 45.9804 265.469L45.9858 265.465Z" fill="black"/>
<path d="M148.447 265.465C148.543 265.465 148.635 265.506 148.683 265.579C148.759 265.688 148.716 265.834 148.581 265.898L46.1204 315.946C45.9913 316.009 45.8246 315.973 45.7439 315.859C45.6686 315.75 45.7116 315.604 45.8461 315.541L148.307 265.493C148.35 265.47 148.398 265.461 148.441 265.461L148.447 265.465Z" fill="black"/>
<path d="M-5.24165 240.439C-5.19323 240.439 -5.14482 240.449 -5.10716 240.471L46.1259 265.493C46.2119 265.534 46.2603 265.611 46.2603 265.693V315.741C46.2603 315.823 46.2066 315.9 46.1259 315.941L-5.10716 340.963C-5.19323 341.004 -5.29545 341.004 -5.38152 340.963L-56.6145 315.941C-56.7006 315.9 -56.749 315.823 -56.749 315.741V265.693C-56.749 265.611 -56.6952 265.534 -56.6145 265.493L-5.38152 240.471C-5.33848 240.449 -5.29007 240.439 -5.24703 240.439H-5.24165ZM45.717 265.83L-5.24165 240.94L-56.2003 265.83V315.609L-5.24165 340.499L45.717 315.609V265.83Z" fill="black"/>
<path d="M-56.4751 265.465C-56.4267 265.465 -56.3837 265.474 -56.3407 265.497L46.12 315.545C46.2491 315.608 46.2975 315.749 46.2222 315.863C46.1469 315.972 45.9801 316.013 45.8457 315.95L-56.615 265.902C-56.7441 265.838 -56.7925 265.697 -56.7172 265.583C-56.6688 265.51 -56.572 265.469 -56.4805 265.469L-56.4751 265.465Z" fill="black"/>
<path d="M45.9857 265.465C46.0825 265.465 46.174 265.506 46.2224 265.579C46.2977 265.688 46.2547 265.834 46.1202 265.898L-56.3405 315.946C-56.4696 316.009 -56.6364 315.973 -56.717 315.859C-56.7924 315.75 -56.7493 315.604 -56.6148 315.541L45.8459 265.493C45.8889 265.47 45.9373 265.461 45.9803 265.461L45.9857 265.465Z" fill="black"/>
<path d="M353.374 165.342C353.422 165.342 353.47 165.351 353.508 165.374L404.741 190.395C404.827 190.436 404.876 190.514 404.876 190.596V240.644C404.876 240.725 404.822 240.803 404.741 240.844L353.508 265.865C353.422 265.906 353.32 265.906 353.234 265.865L302.001 240.844C301.915 240.803 301.866 240.725 301.866 240.644V190.596C301.866 190.514 301.92 190.436 302.001 190.395L353.234 165.374C353.277 165.351 353.325 165.342 353.368 165.342H353.374ZM404.332 190.732L353.374 165.842L302.415 190.732V240.512L353.374 265.401L404.332 240.512V190.732Z" fill="black"/>
<path d="M353.373 165.342C353.524 165.342 353.647 165.446 353.647 165.574V265.67C353.647 265.797 353.524 265.902 353.373 265.902C353.222 265.902 353.099 265.797 353.099 265.67V165.574C353.099 165.446 353.222 165.342 353.373 165.342Z" fill="black"/>
<path d="M302.14 190.363C302.188 190.363 302.232 190.372 302.275 190.395L404.735 240.443C404.864 240.507 404.913 240.648 404.837 240.762C404.762 240.871 404.595 240.912 404.461 240.848L302 190.8C301.871 190.736 301.823 190.595 301.898 190.482C301.946 190.409 302.043 190.368 302.135 190.368L302.14 190.363Z" fill="black"/>
<path d="M404.601 190.364C404.698 190.364 404.789 190.405 404.838 190.478C404.913 190.587 404.87 190.733 404.735 190.796L302.275 240.844C302.146 240.908 301.979 240.872 301.898 240.758C301.823 240.649 301.866 240.503 302 240.439L404.461 190.391C404.504 190.368 404.553 190.359 404.596 190.359L404.601 190.364Z" fill="black"/>
<path d="M250.913 165.342C250.961 165.342 251.009 165.351 251.047 165.374L302.28 190.395C302.366 190.436 302.415 190.514 302.415 190.596V240.644C302.415 240.725 302.361 240.803 302.28 240.844L251.047 265.865C250.961 265.906 250.859 265.906 250.773 265.865L199.54 240.844C199.454 240.803 199.405 240.725 199.405 240.644V190.596C199.405 190.514 199.459 190.436 199.54 190.395L250.773 165.374C250.816 165.351 250.864 165.342 250.907 165.342H250.913ZM301.871 190.732L250.913 165.842L199.954 190.732V240.512L250.913 265.401L301.871 240.512V190.732Z" fill="black"/>
<path d="M250.912 165.342C251.063 165.342 251.186 165.446 251.186 165.574V265.67C251.186 265.797 251.063 265.902 250.912 265.902C250.761 265.902 250.638 265.797 250.638 265.67V165.574C250.638 165.446 250.761 165.342 250.912 165.342Z" fill="black"/>
<path d="M199.679 190.363C199.728 190.363 199.771 190.372 199.814 190.395L302.274 240.443C302.403 240.507 302.452 240.648 302.377 240.762C302.301 240.875 302.134 240.912 302 240.848L199.539 190.8C199.41 190.736 199.362 190.595 199.437 190.482C199.485 190.409 199.582 190.368 199.674 190.368L199.679 190.363Z" fill="black"/>
<path d="M302.14 190.364C302.237 190.364 302.328 190.405 302.377 190.478C302.452 190.587 302.409 190.733 302.274 190.796L199.814 240.844C199.685 240.908 199.513 240.872 199.437 240.758C199.362 240.649 199.405 240.503 199.539 240.439L302 190.391C302.043 190.368 302.092 190.359 302.135 190.359L302.14 190.364Z" fill="black"/>
<path d="M148.447 165.344C148.495 165.344 148.544 165.353 148.581 165.376L199.814 190.397C199.9 190.438 199.949 190.516 199.949 190.598V240.645C199.949 240.727 199.895 240.805 199.814 240.846L148.581 265.867C148.495 265.908 148.393 265.908 148.307 265.867L97.0739 240.846C96.9879 240.805 96.9395 240.727 96.9395 240.645V190.598C96.9395 190.516 96.9932 190.438 97.0739 190.397L148.307 165.376C148.35 165.353 148.398 165.344 148.441 165.344H148.447ZM199.405 190.734L148.447 165.844L97.4882 190.734V240.513L148.447 265.403L199.405 240.513V190.734Z" fill="black"/>
<path d="M148.447 165.344C148.598 165.344 148.722 165.448 148.722 165.576V265.672C148.722 265.799 148.598 265.904 148.447 265.904C148.297 265.904 148.173 265.799 148.173 265.672V165.576C148.173 165.448 148.297 165.344 148.447 165.344Z" fill="black"/>
<path d="M97.2192 190.365C97.2676 190.365 97.3106 190.374 97.3537 190.397L199.814 240.445C199.943 240.509 199.992 240.65 199.917 240.764C199.841 240.877 199.674 240.914 199.54 240.85L97.0793 190.802C96.9502 190.738 96.9018 190.597 96.9771 190.484C97.0255 190.411 97.1224 190.37 97.2138 190.37L97.2192 190.365Z" fill="black"/>
<path d="M199.679 190.366C199.776 190.366 199.867 190.407 199.916 190.48C199.991 190.589 199.948 190.734 199.814 190.798L97.3529 240.846C97.2238 240.91 97.057 240.873 96.9763 240.76C96.901 240.65 96.944 240.505 97.0785 240.441L199.539 190.393C199.582 190.37 199.631 190.361 199.674 190.361L199.679 190.366Z" fill="black"/>
<path d="M45.9859 165.342C46.0343 165.342 46.0827 165.351 46.1204 165.374L97.3534 190.395C97.4395 190.436 97.4879 190.514 97.4879 190.596V240.644C97.4879 240.725 97.4341 240.803 97.3534 240.844L46.1204 265.865C46.0343 265.906 45.9321 265.906 45.8461 265.865L-5.387 240.844C-5.47307 240.803 -5.52148 240.725 -5.52148 240.644V190.596C-5.52148 190.514 -5.46769 190.436 -5.387 190.395L45.8461 165.374C45.8891 165.351 45.9375 165.342 45.9805 165.342H45.9859ZM96.9446 190.732L45.9859 165.842L-4.97278 190.732V240.512L45.9859 265.401L96.9446 240.512V190.732Z" fill="black"/>
<path d="M45.9862 165.342C46.1369 165.342 46.2606 165.446 46.2606 165.574V265.67C46.2606 265.797 46.1369 265.902 45.9862 265.902C45.8356 265.902 45.7119 265.797 45.7119 265.67V165.574C45.7119 165.446 45.8356 165.342 45.9862 165.342Z" fill="black"/>
<path d="M-5.24175 190.363C-5.19334 190.363 -5.1503 190.372 -5.10727 190.395L97.3534 240.443C97.4825 240.507 97.531 240.648 97.4556 240.762C97.3803 240.875 97.2136 240.912 97.0791 240.848L-5.38162 190.8C-5.51072 190.736 -5.55914 190.595 -5.48383 190.482C-5.43542 190.409 -5.33859 190.368 -5.24714 190.368L-5.24175 190.363Z" fill="black"/>
<path d="M97.2191 190.364C97.3159 190.364 97.4074 190.405 97.4558 190.478C97.5311 190.587 97.4881 190.733 97.3536 190.796L-5.10709 240.844C-5.23619 240.908 -5.40834 240.872 -5.48365 240.758C-5.55896 240.644 -5.51592 240.503 -5.38144 240.439L97.0792 190.391C97.1223 190.368 97.1707 190.359 97.2137 190.359L97.2191 190.364Z" fill="black"/>
<path d="M302.14 90.2734C302.189 90.2734 302.237 90.2825 302.275 90.3053L353.508 115.327C353.594 115.368 353.642 115.445 353.642 115.527V165.575C353.642 165.657 353.588 165.734 353.508 165.775L302.275 190.797C302.189 190.838 302.086 190.838 302 190.797L250.767 165.775C250.681 165.734 250.633 165.657 250.633 165.575V115.527C250.633 115.445 250.687 115.368 250.767 115.327L302 90.3053C302.043 90.2825 302.092 90.2734 302.135 90.2734H302.14ZM353.099 115.664L302.14 90.774L251.182 115.664V165.443L302.14 190.333L353.099 165.443V115.664Z" fill="black"/>
<path d="M302.14 90.2734C302.29 90.2734 302.414 90.3781 302.414 90.5055V190.601C302.414 190.729 302.29 190.834 302.14 190.834C301.989 190.834 301.865 190.729 301.865 190.601V90.5055C301.865 90.3781 301.989 90.2734 302.14 90.2734Z" fill="black"/>
<path d="M250.907 115.295C250.955 115.295 250.998 115.304 251.041 115.327L353.502 165.375C353.631 165.438 353.679 165.58 353.604 165.693C353.529 165.803 353.362 165.843 353.228 165.78L250.767 115.732C250.638 115.668 250.589 115.527 250.665 115.413C250.713 115.34 250.81 115.299 250.901 115.299L250.907 115.295Z" fill="black"/>
<path d="M353.372 115.294C353.469 115.294 353.561 115.335 353.609 115.407C353.684 115.517 353.641 115.662 353.507 115.726L251.046 165.774C250.917 165.838 250.75 165.801 250.67 165.687C250.594 165.578 250.637 165.433 250.772 165.369L353.233 115.321C353.276 115.298 353.324 115.289 353.367 115.289L353.372 115.294Z" fill="black"/>
<path d="M199.68 90.2734C199.729 90.2734 199.777 90.2825 199.815 90.3053L251.048 115.327C251.134 115.368 251.182 115.445 251.182 115.527V165.575C251.182 165.657 251.128 165.734 251.048 165.775L199.815 190.797C199.729 190.838 199.626 190.838 199.54 190.797L148.307 165.775C148.221 165.734 148.173 165.657 148.173 165.575V115.527C148.173 115.445 148.227 115.368 148.307 115.327L199.54 90.3053C199.583 90.2825 199.632 90.2734 199.675 90.2734H199.68ZM250.639 115.664L199.68 90.774L148.722 115.664V165.443L199.68 190.333L250.639 165.443V115.664Z" fill="black"/>
<path d="M199.68 90.2734C199.83 90.2734 199.954 90.3781 199.954 90.5055V190.601C199.954 190.729 199.83 190.834 199.68 190.834C199.529 190.834 199.405 190.729 199.405 190.601V90.5055C199.405 90.3781 199.529 90.2734 199.68 90.2734Z" fill="black"/>
<path d="M148.448 115.295C148.496 115.295 148.539 115.304 148.582 115.327L251.043 165.375C251.172 165.438 251.22 165.58 251.145 165.693C251.07 165.803 250.903 165.843 250.768 165.78L148.308 115.732C148.179 115.668 148.13 115.527 148.206 115.413C148.254 115.34 148.351 115.299 148.442 115.299L148.448 115.295Z" fill="black"/>
<path d="M250.908 115.294C251.004 115.294 251.096 115.335 251.144 115.407C251.22 115.517 251.177 115.662 251.042 115.726L148.581 165.774C148.452 165.838 148.286 165.801 148.205 165.687C148.13 165.578 148.173 165.433 148.307 165.369L250.768 115.321C250.811 115.298 250.859 115.289 250.902 115.289L250.908 115.294Z" fill="black"/>
<path d="M97.2193 90.2734C97.2677 90.2734 97.3161 90.2825 97.3538 90.3053L148.587 115.327C148.673 115.368 148.721 115.445 148.721 115.527V165.575C148.721 165.657 148.667 165.734 148.587 165.775L97.3538 190.797C97.2677 190.838 97.1655 190.838 97.0794 190.797L45.8464 165.775C45.7603 165.734 45.7119 165.657 45.7119 165.575V115.527C45.7119 115.445 45.7657 115.368 45.8464 115.327L97.0794 90.3053C97.1225 90.2825 97.1709 90.2734 97.2139 90.2734H97.2193ZM148.178 115.664L97.2193 90.774L46.2606 115.664V165.443L97.2193 190.333L148.178 165.443V115.664Z" fill="black"/>
<path d="M97.2187 90.2734C97.3693 90.2734 97.493 90.3781 97.493 90.5055V190.601C97.493 190.729 97.3693 190.834 97.2187 190.834C97.0681 190.834 96.9443 190.729 96.9443 190.601V90.5055C96.9443 90.3781 97.0681 90.2734 97.2187 90.2734Z" fill="black"/>
<path d="M45.9858 115.295C46.0342 115.295 46.0772 115.304 46.1202 115.327L148.581 165.375C148.71 165.438 148.758 165.58 148.683 165.693C148.608 165.803 148.441 165.843 148.307 165.78L45.8459 115.732C45.7168 115.668 45.6684 115.527 45.7437 115.413C45.7921 115.34 45.889 115.299 45.9804 115.299L45.9858 115.295Z" fill="black"/>
<path d="M148.447 115.294C148.543 115.294 148.635 115.335 148.683 115.407C148.759 115.517 148.716 115.662 148.581 115.726L46.1204 165.774C45.9913 165.838 45.8246 165.801 45.7439 165.687C45.6686 165.578 45.7116 165.433 45.8461 165.369L148.307 115.321C148.35 115.298 148.398 115.289 148.441 115.289L148.447 115.294Z" fill="black"/>
<path d="M-5.24165 90.2734C-5.19323 90.2734 -5.14482 90.2825 -5.10716 90.3053L46.1259 115.327C46.2119 115.368 46.2603 115.445 46.2603 115.527V165.575C46.2603 165.657 46.2066 165.734 46.1259 165.775L-5.10716 190.797C-5.19323 190.838 -5.29545 190.838 -5.38152 190.797L-56.6145 165.775C-56.7006 165.734 -56.749 165.657 -56.749 165.575V115.527C-56.749 115.445 -56.6952 115.368 -56.6145 115.327L-5.38152 90.3053C-5.33848 90.2825 -5.29007 90.2734 -5.24703 90.2734H-5.24165ZM45.717 115.664L-5.24165 90.774L-56.2003 115.664V165.443L-5.24165 190.333L45.717 165.443V115.664Z" fill="black"/>
<path d="M-56.4751 115.295C-56.4267 115.295 -56.3837 115.304 -56.3407 115.327L46.12 165.375C46.2491 165.438 46.2975 165.58 46.2222 165.693C46.1469 165.807 45.9801 165.843 45.8457 165.78L-56.615 115.732C-56.7441 115.668 -56.7925 115.527 -56.7172 115.413C-56.6688 115.34 -56.572 115.299 -56.4805 115.299L-56.4751 115.295Z" fill="black"/>
<path d="M45.9857 115.294C46.0825 115.294 46.174 115.335 46.2224 115.407C46.2977 115.517 46.2547 115.662 46.1202 115.726L-56.3405 165.774C-56.4696 165.838 -56.6364 165.801 -56.717 165.687C-56.7924 165.578 -56.7493 165.433 -56.6148 165.369L45.8459 115.321C45.8889 115.298 45.9373 115.289 45.9803 115.289L45.9857 115.294Z" fill="black"/>
<path d="M353.374 15.1719C353.422 15.1719 353.47 15.181 353.508 15.2037L404.741 40.2254C404.827 40.2664 404.876 40.3438 404.876 40.4257V90.4736C404.876 90.5555 404.822 90.6329 404.741 90.6739L353.508 115.696C353.422 115.737 353.32 115.737 353.234 115.696L302.001 90.6739C301.915 90.6329 301.866 90.5555 301.866 90.4736V40.4257C301.866 40.3438 301.92 40.2664 302.001 40.2254L353.234 15.2037C353.277 15.181 353.325 15.1719 353.368 15.1719H353.374ZM404.332 40.5622L353.374 15.6725L302.415 40.5622V90.3416L353.374 115.231L404.332 90.3416V40.5622Z" fill="black"/>
<path d="M353.373 15.1719C353.524 15.1719 353.647 15.2766 353.647 15.404V115.5C353.647 115.627 353.524 115.732 353.373 115.732C353.222 115.732 353.099 115.627 353.099 115.5V15.404C353.099 15.2766 353.222 15.1719 353.373 15.1719Z" fill="black"/>
<path d="M302.14 40.1992C302.188 40.1992 302.232 40.2083 302.275 40.2311L404.735 90.279C404.864 90.3428 404.913 90.4838 404.837 90.5976C404.762 90.7068 404.595 90.7478 404.461 90.6841L302 40.6361C301.871 40.5724 301.823 40.4313 301.898 40.3176C301.946 40.2447 302.043 40.2038 302.135 40.2038L302.14 40.1992Z" fill="black"/>
<path d="M404.601 40.1979C404.698 40.1979 404.789 40.2389 404.838 40.3117C404.913 40.4209 404.87 40.5666 404.735 40.6303L302.275 90.6782C302.146 90.7419 301.979 90.7055 301.898 90.5918C301.823 90.4825 301.866 90.3369 302 90.2732L404.461 40.2252C404.504 40.2025 404.553 40.1934 404.596 40.1934L404.601 40.1979Z" fill="black"/>
<path d="M250.913 15.1719C250.961 15.1719 251.009 15.181 251.047 15.2037L302.28 40.2254C302.366 40.2664 302.415 40.3438 302.415 40.4257V90.4736C302.415 90.5555 302.361 90.6329 302.28 90.6739L251.047 115.696C250.961 115.737 250.859 115.737 250.773 115.696L199.54 90.6739C199.454 90.6329 199.405 90.5555 199.405 90.4736V40.4257C199.405 40.3438 199.459 40.2664 199.54 40.2254L250.773 15.2037C250.816 15.181 250.864 15.1719 250.907 15.1719H250.913ZM301.871 40.5622L250.913 15.6725L199.954 40.5622V90.3416L250.913 115.231L301.871 90.3416V40.5622Z" fill="black"/>
<path d="M250.912 15.1719C251.063 15.1719 251.186 15.2766 251.186 15.404V115.5C251.186 115.627 251.063 115.732 250.912 115.732C250.761 115.732 250.638 115.627 250.638 115.5V15.404C250.638 15.2766 250.761 15.1719 250.912 15.1719Z" fill="black"/>
<path d="M199.679 40.1992C199.728 40.1992 199.771 40.2083 199.814 40.2311L302.274 90.279C302.403 90.3428 302.452 90.4838 302.377 90.5976C302.301 90.7114 302.134 90.7478 302 90.6841L199.539 40.6361C199.41 40.5724 199.362 40.4313 199.437 40.3176C199.485 40.2447 199.582 40.2038 199.674 40.2038L199.679 40.1992Z" fill="black"/>
<path d="M302.14 40.1979C302.237 40.1979 302.328 40.2389 302.377 40.3117C302.452 40.4209 302.409 40.5666 302.274 40.6303L199.814 90.6782C199.685 90.7419 199.513 90.7055 199.437 90.5918C199.362 90.4825 199.405 90.3369 199.539 90.2732L302 40.2252C302.043 40.2025 302.092 40.1934 302.135 40.1934L302.14 40.1979Z" fill="black"/>
<path d="M148.447 15.1719C148.495 15.1719 148.544 15.181 148.581 15.2037L199.814 40.2254C199.9 40.2664 199.949 40.3438 199.949 40.4257V90.4736C199.949 90.5555 199.895 90.6329 199.814 90.6739L148.581 115.696C148.495 115.737 148.393 115.737 148.307 115.696L97.0739 90.6739C96.9879 90.6329 96.9395 90.5555 96.9395 90.4736V40.4257C96.9395 40.3438 96.9932 40.2664 97.0739 40.2254L148.307 15.2037C148.35 15.181 148.398 15.1719 148.441 15.1719H148.447ZM199.405 40.5622L148.447 15.6725L97.4882 40.5622V90.3416L148.447 115.231L199.405 90.3416V40.5622Z" fill="black"/>
<path d="M148.447 15.1719C148.598 15.1719 148.722 15.2766 148.722 15.404V115.5C148.722 115.627 148.598 115.732 148.447 115.732C148.297 115.732 148.173 115.627 148.173 115.5V15.404C148.173 15.2766 148.297 15.1719 148.447 15.1719Z" fill="black"/>
<path d="M97.2192 40.1973C97.2676 40.1973 97.3106 40.2064 97.3537 40.2291L199.814 90.2771C199.943 90.3408 199.992 90.4819 199.917 90.5956C199.841 90.7094 199.674 90.7458 199.54 90.6821L97.0793 40.6342C96.9502 40.5705 96.9018 40.4294 96.9771 40.3156C97.0255 40.2428 97.1224 40.2018 97.2138 40.2018L97.2192 40.1973Z" fill="black"/>
<path d="M199.679 40.1979C199.776 40.1979 199.867 40.2389 199.916 40.3117C199.991 40.4209 199.948 40.5666 199.814 40.6303L97.3529 90.6782C97.2238 90.7419 97.057 90.7055 96.9763 90.5918C96.901 90.4825 96.944 90.3369 97.0785 90.2732L199.539 40.2252C199.582 40.2025 199.631 40.1934 199.674 40.1934L199.679 40.1979Z" fill="black"/>
<path d="M45.9859 15.1719C46.0343 15.1719 46.0827 15.181 46.1204 15.2037L97.3534 40.2254C97.4395 40.2664 97.4879 40.3438 97.4879 40.4257V90.4736C97.4879 90.5555 97.4341 90.6329 97.3534 90.6739L46.1204 115.696C46.0343 115.737 45.9321 115.737 45.8461 115.696L-5.387 90.6739C-5.47307 90.6329 -5.52148 90.5555 -5.52148 90.4736V40.4257C-5.52148 40.3438 -5.46769 40.2664 -5.387 40.2254L45.8461 15.2037C45.8891 15.181 45.9375 15.1719 45.9805 15.1719H45.9859ZM96.9446 40.5622L45.9859 15.6725L-4.97278 40.5622V90.3416L45.9859 115.231L96.9446 90.3416V40.5622Z" fill="black"/>
<path d="M45.9862 15.1719C46.1369 15.1719 46.2606 15.2766 46.2606 15.404V115.5C46.2606 115.627 46.1369 115.732 45.9862 115.732C45.8356 115.732 45.7119 115.627 45.7119 115.5V15.404C45.7119 15.2766 45.8356 15.1719 45.9862 15.1719Z" fill="black"/>
<path d="M-5.24175 40.1973C-5.19334 40.1973 -5.1503 40.2064 -5.10727 40.2291L97.3534 90.2771C97.4825 90.3408 97.531 90.4819 97.4556 90.5956C97.3803 90.7094 97.2136 90.7458 97.0791 90.6821L-5.38162 40.6342C-5.51072 40.5705 -5.55914 40.4294 -5.48383 40.3156C-5.43542 40.2428 -5.33859 40.2018 -5.24714 40.2018L-5.24175 40.1973Z" fill="black"/>
<path d="M97.2191 40.1979C97.3159 40.1979 97.4074 40.2389 97.4558 40.3117C97.5311 40.4209 97.4881 40.5666 97.3536 40.6303L-5.10709 90.6782C-5.23619 90.7419 -5.40834 90.7055 -5.48365 90.5918C-5.55896 90.478 -5.51592 90.3369 -5.38144 90.2732L97.0792 40.2252C97.1223 40.2025 97.1707 40.1934 97.2137 40.1934L97.2191 40.1979Z" fill="black"/>
<path d="M-97.8081 315.98L189.775 315.98C277.031 315.98 347.766 245.246 347.766 157.99C347.766 70.7341 277.031 -0.000701904 189.775 -0.000701904L-97.808 -0.000701904C-185.064 -0.000701904 -255.799 70.7341 -255.799 157.99C-255.799 245.246 -185.064 315.98 -97.8081 315.98Z" fill="url(#paint0_linear_1_19922)"/>
<path d="M40.3839 248.82L5.64941 231.854L40.3839 214.869V248.82Z" fill="#FF5C01"/>
<path d="M142.849 248.82L108.109 231.854L142.849 214.869V248.82Z" fill="#FF5C01"/>
<path d="M51.584 248.82L86.3185 231.854L51.584 214.869V248.82Z" fill="#FF5C01"/>
<path d="M37.0862 195.49L8.95215 181.746L37.0862 167.988V195.49Z" fill="#E57A6F"/>
<path d="M54.8809 195.49L83.0203 181.746L54.8809 167.988V195.49Z" fill="#FFB578"/>
<path d="M35.8275 142.772L13.0352 131.64L35.8275 120.494V142.772Z" fill="#E57A6F"/>
<path d="M56.1455 142.772L78.9379 131.64L56.1455 120.494V142.772Z" fill="#E57A6F"/>
<path d="M138.288 142.772L115.496 131.64L138.288 120.494V142.772Z" fill="#B6CACE"/>
<path d="M158.605 142.772L181.398 131.64L158.605 120.494V142.772Z" fill="#E57A6F"/>
<path d="M240.749 142.772L217.962 131.64L240.749 120.494V142.772Z" fill="#E57A6F"/>
<path d="M261.072 142.772L283.859 131.64L261.072 120.494V142.772Z" fill="#B6CACE"/>
<path d="M343.214 142.772L320.422 131.64L343.214 120.494V142.772Z" fill="#B6CACE"/>
<path d="M32.9874 88.695L18.6299 81.6818L32.9874 74.6641V88.695Z" fill="#B6CACE"/>
<path d="M59.1201 88.695L73.4776 81.6818L59.1201 74.6641V88.695Z" fill="#B6CACE"/>
<path d="M135.481 88.695L121.123 81.6818L135.481 74.6641V88.695Z" fill="#E57A6F"/>
<path d="M161.613 88.695L175.971 81.6818L161.613 74.6641V88.695Z" fill="#B6CACE"/>
<path d="M237.968 88.695L223.61 81.6818L237.968 74.6641V88.695Z" fill="#B6CACE"/>
<path d="M264.101 88.695L278.458 81.6818L264.101 74.6641V88.695Z" fill="white"/>
<path d="M340.461 88.695L326.098 81.6818L340.461 74.6641V88.695Z" fill="#B6CACE"/>
<path d="M61.0029 34.9337L68.179 31.4249L61.0029 27.916V34.9337Z" fill="#FABAAE"/>
<path d="M133.494 34.9337L126.318 31.4249L133.494 27.916V34.9337Z" fill="#FABAAE"/>
<path d="M235.972 34.9337L228.796 31.4249L235.972 27.916V34.9337Z" fill="#FABAAE"/>
<path d="M265.956 34.9337L273.138 31.4249L265.956 27.916V34.9337Z" fill="#FABAAE"/>
<path d="M338.454 34.9337L331.272 31.4249L338.454 27.916V34.9337Z" fill="#FABAAE"/>
<path d="M245.31 248.82L210.57 231.854L245.31 214.869V248.82Z" fill="#FF5C01"/>
<path d="M154.044 248.82L188.778 231.854L154.044 214.869V248.82Z" fill="#FF5C01"/>
<path d="M347.771 248.82L313.036 231.854L347.771 214.869V248.82Z" fill="#FF5C01"/>
<path d="M256.505 248.82L291.245 231.854L256.505 214.869V248.82Z" fill="#FF5C01"/>
<path d="M40.3839 298.896L5.64941 281.93L40.3839 264.945V298.896Z" fill="#FF5C01"/>
<path d="M142.849 298.896L108.109 281.93L142.849 264.945V298.896Z" fill="#FF5C01"/>
<path d="M51.584 298.896L86.3185 281.93L51.584 264.945V298.896Z" fill="#4B5B55"/>
<path d="M245.31 298.896L210.57 281.93L245.31 264.945V298.896Z" fill="#FF5C01"/>
<path d="M154.044 298.896L188.778 281.93L154.044 264.945V298.896Z" fill="#FF5C01"/>
<path d="M347.771 298.896L313.036 281.93L347.771 264.945V298.896Z" fill="#FF5C01"/>
<path d="M256.505 298.896L291.245 281.93L256.505 264.945V298.896Z" fill="#4B5B55"/>
<path d="M139.547 195.524L111.413 181.779L139.547 168.021V195.524Z" fill="#FFDFB9"/>
<path d="M242.007 195.524L213.873 181.779L242.007 168.021V195.524Z" fill="#E57A6F"/>
<path d="M157.342 195.524L185.481 181.779L157.342 168.021V195.524Z" fill="#FFB578"/>
<path d="M344.473 195.524L316.334 181.779L344.473 168.021V195.524Z" fill="#FFB578"/>
<path d="M259.808 195.524L287.942 181.779L259.808 168.021V195.524Z" fill="#FFB578"/>
<path d="M2.08789 222.17L33.3527 206.896L2.08789 191.609V222.17Z" fill="#FFA962"/>
<path d="M0.350586 273.942L35.0905 256.975L0.350586 239.986V273.942Z" fill="#FF5C01"/>
<path d="M5.05762 169.191L30.3836 156.821L5.05762 144.438V169.191Z" fill="#B6CACE"/>
<path d="M89.8786 222.17L58.6191 206.896L89.8786 191.609V222.17Z" fill="#FF5C01"/>
<path d="M91.6164 273.942L56.8818 256.975L91.6164 239.986V273.942Z" fill="#FF5C01"/>
<path d="M86.9095 169.191L61.5889 156.821L86.9095 144.438V169.191Z" fill="#FFB578"/>
<path d="M104.549 222.17L135.814 206.896L104.549 191.609V222.17Z" fill="#E57A6F"/>
<path d="M102.811 273.942L137.55 256.975L102.811 239.986V273.942Z" fill="#4B5B55"/>
<path d="M107.518 169.191L132.844 156.821L107.518 144.438V169.191Z" fill="#E57A6F"/>
<path d="M192.34 222.17L161.08 206.896L192.34 191.609V222.17Z" fill="#FF5C01"/>
<path d="M194.077 273.942L159.343 256.975L194.077 239.986V273.942Z" fill="#FF5C01"/>
<path d="M189.37 169.191L164.05 156.821L189.37 144.438V169.191Z" fill="#FFB578"/>
<path d="M207.01 222.17L238.275 206.896L207.01 191.609V222.17Z" fill="#FFA962"/>
<path d="M205.277 273.942L240.012 256.975L205.277 239.986V273.942Z" fill="#4B5B55"/>
<path d="M209.984 169.191L235.305 156.821L209.984 144.438V169.191Z" fill="#B6CACE"/>
<path d="M294.806 222.17L263.541 206.896L294.806 191.609V222.17Z" fill="#FF5C01"/>
<path d="M296.538 273.942L261.804 256.975L296.538 239.986V273.942Z" fill="#FF5C01"/>
<path d="M291.831 169.191L266.511 156.821L291.831 144.438V169.191Z" fill="#FFDFB9"/>
<path d="M309.476 222.17L340.735 206.896L309.476 191.609V222.17Z" fill="#E57A6F"/>
<path d="M307.738 273.942L342.473 256.975L307.738 239.986V273.942Z" fill="#4B5B55"/>
<path d="M312.445 169.191L337.766 156.821L312.445 144.438V169.191Z" fill="#B6CACE"/>
<path d="M9.44727 60.174L16.6233 56.6697L9.44727 53.1562V60.174Z" fill="#B6CACE"/>
<path d="M82.5252 60.174L75.3438 56.6697L82.5252 53.1562V60.174Z" fill="#B6CACE"/>
<path d="M184.986 60.174L177.805 56.6697L184.986 53.1562V60.174Z" fill="#B6CACE"/>
<path d="M316.829 60.174L324.011 56.6697L316.829 53.1562V60.174Z" fill="#B6CACE"/>
<path d="M5.24023 116.767L25.7517 106.745L5.24023 96.7148V116.767Z" fill="white"/>
<path d="M107.706 116.767L128.218 106.745L107.706 96.7148V116.767Z" fill="#E57A6F"/>
<path d="M86.7263 116.767L66.2148 106.745L86.7263 96.7148V116.767Z" fill="white"/>
<path d="M210.167 116.767L230.678 106.745L210.167 96.7148V116.767Z" fill="#E57A6F"/>
<path d="M189.193 116.767L168.682 106.745L189.193 96.7148V116.767Z" fill="white"/>
<path d="M312.628 116.767L333.139 106.745L312.628 96.7148V116.767Z" fill="#E57A6F"/>
<path d="M291.654 116.767L271.143 106.745L291.654 96.7148V116.767Z" fill="white"/>
</g>
<defs>
<linearGradient id="paint0_linear_1_19922" x1="45.9836" y1="308.889" x2="45.9836" y2="19.2736" gradientUnits="userSpaceOnUse">
<stop stop-color="white"/>
<stop offset="0.05" stop-color="white"/>
<stop offset="0.88" stop-color="white"/>
</linearGradient>
</defs>
</svg>
