<svg width="16" height="14" viewBox="0 0 16 14" fill="none" xmlns="http://www.w3.org/2000/svg">
<path d="M15.4971 2.34967C14.9333 2.59424 14.3371 2.75592 13.7271 2.82967C14.3707 2.44516 14.853 1.84026 15.0846 1.12717C14.4797 1.48722 13.8176 1.74089 13.1271 1.87717C12.6655 1.3766 12.0508 1.04339 11.3794 0.929808C10.7081 0.816224 10.018 0.928688 9.41741 1.24956C8.81685 1.57043 8.33977 2.08157 8.061 2.7028C7.78223 3.32403 7.71754 4.02021 7.87707 4.68217C6.65414 4.62031 5.4579 4.30188 4.36606 3.74757C3.27422 3.19325 2.3112 2.41544 1.53957 1.46467C1.26892 1.9373 1.12671 2.47254 1.12707 3.01717C1.12611 3.52296 1.25023 4.02113 1.48839 4.46734C1.72654 4.91355 2.07133 5.29395 2.49207 5.57467C2.00305 5.56136 1.52448 5.43014 1.09707 5.19217V5.22967C1.10074 5.93834 1.34907 6.62399 1.80006 7.17064C2.25105 7.7173 2.87701 8.0914 3.57207 8.22967C3.30451 8.31109 3.02673 8.35402 2.74707 8.35717C2.55349 8.35491 2.36039 8.33735 2.16957 8.30467C2.3675 8.91428 2.75054 9.44703 3.26538 9.82879C3.78022 10.2105 4.40125 10.4223 5.04207 10.4347C3.95997 11.2861 2.62398 11.7508 1.24707 11.7547C0.996372 11.7555 0.745872 11.7405 0.49707 11.7097C1.90289 12.6174 3.54118 13.0992 5.21457 13.0972C6.36934 13.1092 7.51492 12.8909 8.58441 12.4552C9.65389 12.0195 10.6258 11.3751 11.4435 10.5595C12.2611 9.744 12.908 8.77371 13.3465 7.70535C13.7849 6.63698 14.0061 5.49196 13.9971 4.33717C13.9971 4.20967 13.9971 4.07467 13.9971 3.93967C14.5856 3.50078 15.0932 2.96274 15.4971 2.34967Z" fill="#667085"/>
</svg>
