<svg width="36" height="36" viewBox="0 0 36 36" fill="none" xmlns="http://www.w3.org/2000/svg">
<circle cx="18" cy="18" r="18" fill="#F7F9FC"/>
<rect width="20" height="20" transform="translate(8 8)" fill="#F7F9FC"/>
<path d="M24.2191 11.3285C21.9844 9.95769 20.034 10.5101 18.8623 11.39C18.3819 11.7508 18.1417 11.9312 18.0003 11.9312C17.859 11.9312 17.6188 11.7508 17.1384 11.39L17.1384 11.39C15.9667 10.5101 14.0162 9.95769 11.7815 11.3285C8.84872 13.1274 8.18509 19.0624 14.9499 24.0695C16.2384 25.0232 16.8827 25.5 18.0003 25.5C19.118 25.5 19.7622 25.0232 21.0507 24.0695C27.8156 19.0624 27.1519 13.1274 24.2191 11.3285Z" fill="#FF5C01"/>
</svg>
